<svg xmlns="http://www.w3.org/2000/svg" xmlns:xlink="http://www.w3.org/1999/xlink" width="4535" zoomAndPan="magnify" viewBox="0 0 3401.25 2551.499951" height="3402" preserveAspectRatio="xMidYMid meet" version="1.0"><defs><g/><clipPath id="40c0c4f335"><path d="M 0 0.03125 L 3400.5 0.03125 L 3400.5 2550.96875 L 0 2550.96875 Z M 0 0.03125 " clip-rule="nonzero"/></clipPath><clipPath id="ce665227b3"><path d="M 989.914062 351.449219 L 2424 351.449219 L 2424 1008 L 989.914062 1008 Z M 989.914062 351.449219 " clip-rule="nonzero"/></clipPath><clipPath id="0cbcb2197d"><path d="M 445 1753.699219 L 2926 1753.699219 L 2926 1764.949219 L 445 1764.949219 Z M 445 1753.699219 " clip-rule="nonzero"/></clipPath><clipPath id="b76c7b8312"><path d="M 621 1194.96875 L 986 1194.96875 L 986 1626.875 L 621 1626.875 Z M 621 1194.96875 " clip-rule="nonzero"/></clipPath><clipPath id="a382f09756"><path d="M 1017.667969 1183.972656 L 1460.820312 1183.972656 L 1460.820312 1627 L 1017.667969 1627 Z M 1017.667969 1183.972656 " clip-rule="nonzero"/></clipPath><clipPath id="5b1c544ec0"><path d="M 1952.730469 1183.972656 L 2395.882812 1183.972656 L 2395.882812 1627 L 1952.730469 1627 Z M 1952.730469 1183.972656 " clip-rule="nonzero"/></clipPath><clipPath id="a88e01f2cb"><path d="M 1484.679688 1067 L 2083.050781 1067 L 2083.050781 1628.851562 L 1484.679688 1628.851562 Z M 1484.679688 1067 " clip-rule="nonzero"/></clipPath><clipPath id="3c8ce6d979"><rect x="0" width="432" y="0" height="462"/></clipPath></defs><g clip-path="url(#40c0c4f335)"><path fill="#ffffff" d="M 0 0.03125 L 3400.5 0.03125 L 3400.5 2550.96875 L 0 2550.96875 Z M 0 0.03125 " fill-opacity="1" fill-rule="nonzero"/><path fill="#303843" d="M 0 0.03125 L 3400.5 0.03125 L 3400.5 2550.96875 L 0 2550.96875 Z M 0 0.03125 " fill-opacity="1" fill-rule="nonzero"/></g><g clip-path="url(#ce665227b3)"><path fill="#e75b0f" d="M 995.628906 861.804688 L 995.628906 861.808594 L 992.746094 858.921875 L 1325.917969 859.003906 C 1326.289062 859.003906 1326.660156 859.074219 1327.003906 859.214844 L 1678.175781 1002.214844 L 1676.234375 1002.132812 L 2011.574219 898.402344 L 2011.429688 903.867188 L 1825.160156 835.3125 L 1826.523438 835.46875 L 1585.882812 865.96875 C 1585.0625 866.074219 1584.238281 865.820312 1583.617188 865.277344 C 1582.996094 864.730469 1582.640625 863.945312 1582.632812 863.121094 L 1581.382812 604.195312 C 1581.378906 603.324219 1581.769531 602.5 1582.441406 601.949219 L 1729.648438 481.625 C 1730.261719 481.121094 1731.054688 480.894531 1731.839844 480.996094 C 1732.625 481.097656 1733.335938 481.515625 1733.804688 482.152344 L 1832.597656 617.203125 C 1832.953125 617.691406 1833.148438 618.28125 1833.152344 618.886719 L 1834.539062 819.535156 L 1832.4375 816.777344 L 1960.246094 852.765625 L 1956.578125 855.5625 L 1955.171875 647.730469 L 1955.558594 649.152344 L 1799.589844 378.246094 L 1803.914062 379.042969 L 1571.78125 568.195312 L 1572.84375 565.949219 L 1573.75 864.511719 C 1573.753906 865.378906 1573.363281 866.199219 1572.695312 866.75 C 1572.023438 867.300781 1571.140625 867.519531 1570.292969 867.347656 L 1511.109375 855.378906 C 1509.765625 855.109375 1508.800781 853.929688 1508.796875 852.558594 L 1508.417969 593.773438 C 1508.414062 592.914062 1508.796875 592.097656 1509.460938 591.546875 L 1597.25 518.757812 L 1598.535156 523.808594 L 1494.503906 503.421875 L 1497.945312 500.589844 L 1497.757812 847.796875 C 1497.757812 848.679688 1497.351562 849.511719 1496.664062 850.058594 C 1495.972656 850.605469 1495.070312 850.808594 1494.210938 850.605469 L 1443.730469 838.757812 C 1442.429688 838.453125 1441.507812 837.296875 1441.503906 835.960938 L 1440.53125 540.476562 C 1440.527344 539.667969 1440.863281 538.898438 1441.457031 538.347656 L 1480.515625 502.207031 C 1481.359375 501.429688 1482.585938 501.222656 1483.636719 501.6875 C 1484.691406 502.148438 1485.367188 503.191406 1485.359375 504.339844 L 1484.796875 614.464844 C 1484.792969 615.300781 1484.425781 616.09375 1483.792969 616.636719 L 1409.171875 680.859375 L 1410.175781 678.671875 L 1410.132812 851.414062 L 1408.09375 848.65625 L 1645.515625 921.613281 L 1641.78125 924.378906 L 1640.710938 530.933594 C 1640.707031 530.058594 1641.101562 529.230469 1641.785156 528.683594 L 1860.644531 352.082031 C 1861.292969 351.558594 1862.128906 351.34375 1862.945312 351.484375 C 1863.765625 351.625 1864.480469 352.109375 1864.914062 352.816406 L 2043.910156 643.8125 C 2044.183594 644.261719 2044.332031 644.773438 2044.339844 645.296875 L 2046.617188 861.566406 L 2043.753906 858.714844 L 2420.910156 861.402344 C 2422.503906 861.414062 2423.789062 862.714844 2423.777344 864.308594 C 2423.765625 865.902344 2422.464844 867.1875 2420.871094 867.175781 L 2043.714844 864.484375 C 2042.140625 864.472656 2040.863281 863.203125 2040.847656 861.628906 L 2038.566406 645.355469 L 2038.996094 646.839844 L 1860 355.839844 L 1864.269531 356.574219 L 1645.40625 533.171875 L 1646.480469 530.917969 L 1647.554688 924.363281 C 1647.554688 925.28125 1647.125 926.144531 1646.386719 926.691406 C 1645.648438 927.234375 1644.699219 927.398438 1643.820312 927.128906 L 1406.398438 854.171875 C 1405.1875 853.800781 1404.359375 852.679688 1404.363281 851.414062 L 1404.402344 678.671875 C 1404.402344 677.832031 1404.769531 677.03125 1405.40625 676.484375 L 1480.03125 612.261719 L 1479.027344 614.4375 L 1479.589844 504.3125 L 1484.433594 506.445312 L 1445.375 542.585938 L 1446.300781 540.457031 L 1447.277344 835.941406 L 1445.050781 833.140625 L 1495.53125 844.988281 L 1491.984375 847.796875 L 1492.175781 500.589844 C 1492.175781 499.726562 1492.5625 498.910156 1493.226562 498.359375 C 1493.894531 497.8125 1494.769531 497.59375 1495.617188 497.757812 L 1599.644531 518.148438 C 1600.738281 518.359375 1601.613281 519.1875 1601.886719 520.265625 C 1602.160156 521.347656 1601.789062 522.488281 1600.933594 523.199219 L 1513.144531 595.992188 L 1514.1875 593.765625 L 1514.570312 852.546875 L 1512.253906 849.722656 L 1571.4375 861.691406 L 1567.976562 864.527344 L 1567.070312 565.964844 C 1567.066406 565.09375 1567.457031 564.269531 1568.132812 563.71875 L 1800.269531 374.566406 C 1800.925781 374.035156 1801.78125 373.8125 1802.613281 373.96875 C 1803.445312 374.121094 1804.167969 374.632812 1804.589844 375.367188 L 1960.558594 646.273438 C 1960.808594 646.703125 1960.941406 647.191406 1960.945312 647.691406 L 1962.347656 855.523438 C 1962.355469 856.429688 1961.933594 857.289062 1961.210938 857.839844 C 1960.492188 858.386719 1959.554688 858.566406 1958.679688 858.320312 L 1830.871094 822.335938 C 1829.636719 821.984375 1828.777344 820.863281 1828.769531 819.578125 L 1827.382812 618.925781 L 1827.9375 620.609375 L 1729.144531 485.5625 L 1733.300781 486.09375 L 1586.09375 606.417969 L 1587.152344 604.167969 L 1588.40625 863.09375 L 1585.15625 860.242188 L 1825.796875 829.742188 C 1826.253906 829.683594 1826.722656 829.738281 1827.15625 829.898438 L 2013.421875 898.453125 C 2014.582031 898.878906 2015.34375 900 2015.3125 901.234375 C 2015.277344 902.472656 2014.460938 903.550781 2013.277344 903.917969 L 1677.9375 1007.644531 C 1677.300781 1007.84375 1676.613281 1007.8125 1675.996094 1007.5625 L 1324.828125 864.5625 L 1325.914062 864.773438 L 992.742188 864.691406 C 991.148438 864.691406 989.859375 863.402344 989.859375 861.808594 L 989.859375 861.804688 C 989.859375 860.210938 991.148438 858.917969 992.742188 858.917969 C 994.335938 858.917969 995.628906 860.210938 995.628906 861.804688 Z M 995.628906 861.804688 " fill-opacity="1" fill-rule="nonzero"/></g><g clip-path="url(#0cbcb2197d)"><path fill="#ffffff" d="M 445.378906 1753.699219 L 2925.433594 1753.699219 L 2925.433594 1765.078125 L 445.378906 1765.078125 Z M 445.378906 1753.699219 " fill-opacity="1" fill-rule="nonzero"/></g><path fill="#ffffff" d="M 985.914062 1437.683594 L 985.914062 1356.878906 L 837.773438 1356.878906 L 837.773438 1437.683594 L 985.914062 1437.683594 " fill-opacity="1" fill-rule="nonzero"/><g clip-path="url(#b76c7b8312)"><path fill="#ffffff" d="M 905.109375 1545.128906 L 837.773438 1545.128906 C 763.5625 1545.128906 703.390625 1484.960938 703.390625 1410.746094 C 703.390625 1336.535156 763.5625 1276.363281 837.773438 1276.363281 L 985.914062 1276.074219 L 985.914062 1194.894531 L 837.773438 1194.894531 C 718.5625 1194.894531 621.917969 1291.539062 621.917969 1410.746094 C 621.917969 1529.957031 718.5625 1626.601562 837.773438 1626.601562 L 985.914062 1626.601562 L 985.914062 1455.640625 L 905.109375 1455.640625 L 905.109375 1545.128906 " fill-opacity="1" fill-rule="nonzero"/></g><g clip-path="url(#a382f09756)"><path fill="#ffffff" d="M 1017.667969 1626.832031 L 1197.578125 1183.972656 L 1280.613281 1183.972656 L 1460.527344 1626.832031 L 1119.921875 1626.832031 L 1156.058594 1543.792969 L 1335.972656 1543.792969 L 1239.863281 1302.757812 L 1104.929688 1626.832031 L 1017.667969 1626.832031 " fill-opacity="1" fill-rule="nonzero"/></g><g clip-path="url(#5b1c544ec0)"><path fill="#ffffff" d="M 1952.730469 1626.832031 L 2132.640625 1183.972656 L 2215.675781 1183.972656 L 2395.589844 1626.832031 L 2054.988281 1626.832031 L 2091.125 1543.792969 L 2271.035156 1543.792969 L 2174.929688 1302.757812 L 2039.996094 1626.832031 L 1952.730469 1626.832031 " fill-opacity="1" fill-rule="nonzero"/></g><g clip-path="url(#a88e01f2cb)"><path fill="#e75b0f" d="M 1779.492188 1255.859375 L 1707.59375 1371.527344 L 1590.410156 1183 L 1484.679688 1183 L 1484.679688 1628.832031 L 1581.488281 1628.832031 L 1581.488281 1339.675781 L 1655.667969 1452.273438 L 1705.683594 1528.203125 L 1707.617188 1531.136719 L 1838.464844 1330.316406 C 1909.03125 1222.007812 2016.671875 1330.347656 2068.132812 1397.476562 L 2083.011719 1391.164062 C 2057.894531 1307.003906 1988.433594 1217.84375 1887.554688 1152.125 C 1790.972656 1089.199219 1686.394531 1061.300781 1601.164062 1068.722656 L 1600.269531 1082.902344 C 1679.941406 1101.554688 1812.515625 1161.144531 1779.492188 1255.859375 M 1930.511719 1628.832031 L 1930.511719 1306.171875 C 1903.703125 1298.890625 1877.117188 1305.96875 1854.460938 1340.746094 L 1833.707031 1372.601562 L 1833.707031 1628.832031 Z M 1939.851562 1174.695312 L 1938.8125 1176.300781 C 1923.921875 1164.402344 1908.644531 1153.394531 1893.253906 1143.375 C 1884.859375 1137.898438 1876.195312 1132.566406 1867.320312 1127.445312 L 1867.320312 1127.4375 C 1880.308594 1107.484375 1907.285156 1101.800781 1927.226562 1114.789062 C 1947.175781 1127.789062 1952.855469 1154.75 1939.851562 1174.695312 Z M 1939.851562 1174.695312 " fill-opacity="1" fill-rule="evenodd"/></g><g transform="matrix(1, 0, 0, 1, 2323, 1183)"><g clip-path="url(#3c8ce6d979)"><g fill="#ffffff" fill-opacity="1"><g transform="translate(0.536922, 441.174976)"><g><path d="M 250.921875 -356.140625 L 250.921875 0 L 160.640625 0 L 160.640625 -356.140625 L 13.703125 -356.140625 L 13.703125 -435.84375 L 417.78125 -435.84375 L 394.125 -376.0625 C 392.050781 -370.25 388.316406 -365.472656 382.921875 -361.734375 C 377.523438 -358.003906 371.710938 -356.140625 365.484375 -356.140625 Z M 250.921875 -356.140625 "/></g></g></g></g></g><g fill="#e75b0f" fill-opacity="1"><g transform="translate(279.303658, 1996.080398)"><g><path d="M 55.546875 -9.609375 C 62.546875 -9.609375 68.679688 -11.378906 73.953125 -14.921875 C 79.222656 -18.460938 83.132812 -23.238281 85.6875 -29.25 L 97.359375 -29.25 C 94.109375 -19.988281 88.742188 -12.703125 81.265625 -7.390625 C 73.285156 -1.671875 63.878906 1.1875 53.046875 1.1875 C 38.765625 1.1875 27.191406 -3.6875 18.328125 -13.4375 C 9.953125 -22.800781 5.765625 -34.625 5.765625 -48.90625 C 5.765625 -63.1875 9.953125 -75.003906 18.328125 -84.359375 C 27.191406 -94.117188 38.765625 -99 53.046875 -99 C 63.878906 -99 73.285156 -96.140625 81.265625 -90.421875 C 88.742188 -85.097656 94.109375 -77.8125 97.359375 -68.5625 L 85.6875 -68.5625 C 83.132812 -74.5625 79.222656 -79.332031 73.953125 -82.875 C 68.679688 -86.425781 62.546875 -88.203125 55.546875 -88.203125 C 48.554688 -88.203125 42.742188 -87.191406 38.109375 -85.171875 C 33.484375 -83.160156 29.597656 -80.378906 26.453125 -76.828125 C 20.046875 -69.640625 16.84375 -60.332031 16.84375 -48.90625 C 16.84375 -37.476562 20.046875 -28.171875 26.453125 -20.984375 C 33.148438 -13.398438 42.847656 -9.609375 55.546875 -9.609375 Z M 55.546875 -9.609375 "/></g></g></g><g fill="#e75b0f" fill-opacity="1"><g transform="translate(381.252872, 1996.080398)"><g><path d="M 41.671875 -75.0625 C 52.703125 -75.0625 61.664062 -71.363281 68.5625 -63.96875 C 75.0625 -56.882812 78.3125 -47.875 78.3125 -36.9375 C 78.3125 -26 75.0625 -16.988281 68.5625 -9.90625 C 61.664062 -2.507812 52.703125 1.1875 41.671875 1.1875 C 30.640625 1.1875 21.675781 -2.507812 14.78125 -9.90625 C 8.28125 -16.988281 5.03125 -26 5.03125 -36.9375 C 5.03125 -47.875 8.28125 -56.882812 14.78125 -63.96875 C 21.675781 -71.363281 30.640625 -75.0625 41.671875 -75.0625 Z M 41.671875 -8.859375 C 49.648438 -8.859375 55.953125 -11.617188 60.578125 -17.140625 C 65.003906 -22.359375 67.21875 -28.957031 67.21875 -36.9375 C 67.21875 -44.914062 65.003906 -51.515625 60.578125 -56.734375 C 55.953125 -62.253906 49.648438 -65.015625 41.671875 -65.015625 C 33.691406 -65.015625 27.382812 -62.253906 22.75 -56.734375 C 18.320312 -51.515625 16.109375 -44.914062 16.109375 -36.9375 C 16.109375 -28.957031 18.320312 -22.359375 22.75 -17.140625 C 27.382812 -11.617188 33.691406 -8.859375 41.671875 -8.859375 Z M 41.671875 -8.859375 "/></g></g></g><g fill="#e75b0f" fill-opacity="1"><g transform="translate(464.58527, 1996.080398)"><g><path d="M 20.6875 -73.875 L 20.6875 -62.34375 C 23.34375 -65.894531 26.59375 -68.898438 30.4375 -71.359375 C 34.28125 -73.828125 38.660156 -75.0625 43.578125 -75.0625 C 48.503906 -75.0625 52.738281 -74.367188 56.28125 -72.984375 C 59.832031 -71.609375 62.9375 -69.539062 65.59375 -66.78125 C 71.707031 -60.769531 74.765625 -52.84375 74.765625 -43 L 74.765625 0 L 63.6875 0 L 63.6875 -42.703125 C 63.6875 -49.492188 61.765625 -54.910156 57.921875 -58.953125 C 54.078125 -62.992188 49.101562 -65.015625 43 -65.015625 C 36.789062 -65.015625 31.519531 -62.941406 27.1875 -58.796875 C 22.851562 -54.566406 20.6875 -49.148438 20.6875 -42.546875 L 20.6875 0 L 9.609375 0 L 9.609375 -73.875 Z M 20.6875 -73.875 "/></g></g></g><g fill="#e75b0f" fill-opacity="1"><g transform="translate(548.213169, 1996.080398)"><g><path d="M 53.046875 -54.078125 C 52.054688 -61.753906 45.875 -65.59375 34.5 -65.59375 C 23.125 -65.59375 17.4375 -62.050781 17.4375 -54.96875 C 17.4375 -52.007812 18.640625 -49.765625 21.046875 -48.234375 C 23.460938 -46.710938 26.492188 -45.457031 30.140625 -44.46875 C 33.785156 -43.488281 37.75 -42.578125 42.03125 -41.734375 C 46.320312 -40.898438 50.285156 -39.71875 53.921875 -38.1875 C 57.566406 -36.664062 60.597656 -34.570312 63.015625 -31.90625 C 65.429688 -29.25 66.640625 -25.609375 66.640625 -20.984375 C 66.640625 -13.785156 63.925781 -8.289062 58.5 -4.5 C 53.082031 -0.707031 45.75 1.1875 36.5 1.1875 C 26.644531 1.1875 18.8125 -1.273438 13 -6.203125 C 7.6875 -10.535156 4.832031 -16.203125 4.4375 -23.203125 L 15.953125 -23.203125 C 16.640625 -16.398438 20.484375 -11.816406 27.484375 -9.453125 C 30.046875 -8.671875 32.582031 -8.28125 35.09375 -8.28125 C 37.601562 -8.28125 39.941406 -8.425781 42.109375 -8.71875 C 44.273438 -9.007812 46.394531 -9.550781 48.46875 -10.34375 C 53.1875 -12.21875 55.546875 -15.421875 55.546875 -19.953125 C 55.546875 -23.003906 54.335938 -25.34375 51.921875 -26.96875 C 49.515625 -28.59375 46.488281 -29.921875 42.84375 -30.953125 C 39.195312 -31.984375 35.234375 -32.914062 30.953125 -33.75 C 26.671875 -34.59375 22.707031 -35.753906 19.0625 -37.234375 C 15.414062 -38.710938 12.382812 -40.726562 9.96875 -43.28125 C 7.5625 -45.84375 6.359375 -49.390625 6.359375 -53.921875 C 6.359375 -60.617188 8.796875 -65.816406 13.671875 -69.515625 C 18.546875 -73.210938 25.757812 -75.0625 35.3125 -75.0625 C 44.375 -75.0625 51.515625 -72.894531 56.734375 -68.5625 C 61.066406 -64.914062 63.578125 -60.085938 64.265625 -54.078125 Z M 53.046875 -54.078125 "/></g></g></g><g fill="#e75b0f" fill-opacity="1"><g transform="translate(619.429862, 1996.080398)"><g><path d="M 17.578125 0 L 17.578125 -64.125 L 2.515625 -64.125 L 2.515625 -73.875 L 17.578125 -73.875 L 17.578125 -100.328125 L 28.65625 -100.328125 L 28.65625 -73.875 L 45.65625 -73.875 L 45.65625 -64.125 L 28.65625 -64.125 L 28.65625 0 Z M 17.578125 0 "/></g></g></g><g fill="#e75b0f" fill-opacity="1"><g transform="translate(667.597171, 1996.080398)"><g><path d="M 48.609375 -75.0625 L 48.609375 -63.96875 L 47.28125 -63.96875 C 39.300781 -63.96875 32.800781 -60.769531 27.78125 -54.375 C 23.050781 -48.269531 20.6875 -40.976562 20.6875 -32.5 L 20.6875 0 L 9.609375 0 L 9.609375 -73.875 L 20.6875 -73.875 L 20.6875 -55.703125 C 23.050781 -63.378906 28.171875 -69.039062 36.046875 -72.6875 C 39.296875 -74.269531 43.238281 -75.0625 47.875 -75.0625 Z M 48.609375 -75.0625 "/></g></g></g><g fill="#e75b0f" fill-opacity="1"><g transform="translate(718.571784, 1996.080398)"><g><path d="M 62.9375 0 L 62.9375 -11.53125 C 60.28125 -7.976562 57.03125 -4.96875 53.1875 -2.5 C 49.34375 -0.0390625 44.957031 1.1875 40.03125 1.1875 C 35.113281 1.1875 30.878906 0.5 27.328125 -0.875 C 23.785156 -2.257812 20.6875 -4.332031 18.03125 -7.09375 C 11.914062 -13.101562 8.859375 -21.03125 8.859375 -30.875 L 8.859375 -73.875 L 19.953125 -73.875 L 19.953125 -31.171875 C 19.953125 -24.378906 21.867188 -18.960938 25.703125 -14.921875 C 29.546875 -10.878906 34.519531 -8.859375 40.625 -8.859375 C 46.832031 -8.859375 52.101562 -10.929688 56.4375 -15.078125 C 60.769531 -19.304688 62.9375 -24.722656 62.9375 -31.328125 L 62.9375 -73.875 L 74.015625 -73.875 L 74.015625 0 Z M 62.9375 0 "/></g></g></g><g fill="#e75b0f" fill-opacity="1"><g transform="translate(802.199672, 1996.080398)"><g><path d="M 43.734375 -8.859375 C 48.460938 -8.859375 52.648438 -10.1875 56.296875 -12.84375 C 59.941406 -15.507812 62.597656 -18.960938 64.265625 -23.203125 L 76.234375 -23.203125 C 73.972656 -15.910156 69.835938 -10.046875 63.828125 -5.609375 C 57.523438 -1.078125 50.039062 1.1875 41.375 1.1875 C 30.539062 1.1875 21.722656 -2.507812 14.921875 -9.90625 C 8.328125 -17.09375 5.03125 -26.101562 5.03125 -36.9375 C 5.03125 -47.769531 8.328125 -56.78125 14.921875 -63.96875 C 21.722656 -71.363281 30.539062 -75.0625 41.375 -75.0625 C 50.039062 -75.0625 57.523438 -72.796875 63.828125 -68.265625 C 69.835938 -63.828125 73.972656 -57.960938 76.234375 -50.671875 L 64.265625 -50.671875 C 62.597656 -54.910156 59.941406 -58.359375 56.296875 -61.015625 C 52.648438 -63.679688 48.460938 -65.015625 43.734375 -65.015625 C 39.003906 -65.015625 34.988281 -64.273438 31.6875 -62.796875 C 28.394531 -61.316406 25.613281 -59.296875 23.34375 -56.734375 C 18.519531 -51.410156 16.109375 -44.8125 16.109375 -36.9375 C 16.109375 -29.0625 18.519531 -22.460938 23.34375 -17.140625 C 28.269531 -11.617188 35.066406 -8.859375 43.734375 -8.859375 Z M 43.734375 -8.859375 "/></g></g></g><g fill="#e75b0f" fill-opacity="1"><g transform="translate(882.577009, 1996.080398)"><g><path d="M 17.578125 0 L 17.578125 -64.125 L 2.515625 -64.125 L 2.515625 -73.875 L 17.578125 -73.875 L 17.578125 -100.328125 L 28.65625 -100.328125 L 28.65625 -73.875 L 45.65625 -73.875 L 45.65625 -64.125 L 28.65625 -64.125 L 28.65625 0 Z M 17.578125 0 "/></g></g></g><g fill="#e75b0f" fill-opacity="1"><g transform="translate(930.744319, 1996.080398)"><g><path d="M 9.609375 -73.875 L 20.6875 -73.875 L 20.6875 0 L 9.609375 0 Z M 21.125 -100.765625 L 21.125 -86.28125 L 9.15625 -86.28125 L 9.15625 -100.765625 Z M 21.125 -100.765625 "/></g></g></g><g fill="#e75b0f" fill-opacity="1"><g transform="translate(961.033583, 1996.080398)"><g><path d="M 41.671875 -75.0625 C 52.703125 -75.0625 61.664062 -71.363281 68.5625 -63.96875 C 75.0625 -56.882812 78.3125 -47.875 78.3125 -36.9375 C 78.3125 -26 75.0625 -16.988281 68.5625 -9.90625 C 61.664062 -2.507812 52.703125 1.1875 41.671875 1.1875 C 30.640625 1.1875 21.675781 -2.507812 14.78125 -9.90625 C 8.28125 -16.988281 5.03125 -26 5.03125 -36.9375 C 5.03125 -47.875 8.28125 -56.882812 14.78125 -63.96875 C 21.675781 -71.363281 30.640625 -75.0625 41.671875 -75.0625 Z M 41.671875 -8.859375 C 49.648438 -8.859375 55.953125 -11.617188 60.578125 -17.140625 C 65.003906 -22.359375 67.21875 -28.957031 67.21875 -36.9375 C 67.21875 -44.914062 65.003906 -51.515625 60.578125 -56.734375 C 55.953125 -62.253906 49.648438 -65.015625 41.671875 -65.015625 C 33.691406 -65.015625 27.382812 -62.253906 22.75 -56.734375 C 18.320312 -51.515625 16.109375 -44.914062 16.109375 -36.9375 C 16.109375 -28.957031 18.320312 -22.359375 22.75 -17.140625 C 27.382812 -11.617188 33.691406 -8.859375 41.671875 -8.859375 Z M 41.671875 -8.859375 "/></g></g></g><g fill="#e75b0f" fill-opacity="1"><g transform="translate(1044.366003, 1996.080398)"><g><path d="M 20.6875 -73.875 L 20.6875 -62.34375 C 23.34375 -65.894531 26.59375 -68.898438 30.4375 -71.359375 C 34.28125 -73.828125 38.660156 -75.0625 43.578125 -75.0625 C 48.503906 -75.0625 52.738281 -74.367188 56.28125 -72.984375 C 59.832031 -71.609375 62.9375 -69.539062 65.59375 -66.78125 C 71.707031 -60.769531 74.765625 -52.84375 74.765625 -43 L 74.765625 0 L 63.6875 0 L 63.6875 -42.703125 C 63.6875 -49.492188 61.765625 -54.910156 57.921875 -58.953125 C 54.078125 -62.992188 49.101562 -65.015625 43 -65.015625 C 36.789062 -65.015625 31.519531 -62.941406 27.1875 -58.796875 C 22.851562 -54.566406 20.6875 -49.148438 20.6875 -42.546875 L 20.6875 0 L 9.609375 0 L 9.609375 -73.875 Z M 20.6875 -73.875 "/></g></g></g><g fill="#e75b0f" fill-opacity="1"><g transform="translate(1127.993891, 1996.080398)"><g/></g></g><g fill="#e75b0f" fill-opacity="1"><g transform="translate(1159.46516, 1996.080398)"><g><path d="M 22.15625 -15.078125 L 22.15625 0 L 7.828125 0 L 7.828125 -15.078125 Z M 22.15625 -15.078125 "/></g></g></g><g fill="#e75b0f" fill-opacity="1"><g transform="translate(1189.458911, 1996.080398)"><g/></g></g><g fill="#e75b0f" fill-opacity="1"><g transform="translate(1220.93018, 1996.080398)"><g><path d="M 23.046875 0 L 11.96875 0 L 11.96875 -97.8125 L 58.796875 -97.8125 C 68.753906 -97.8125 76.734375 -95.050781 82.734375 -89.53125 C 88.742188 -84.113281 91.75 -76.675781 91.75 -67.21875 C 91.75 -55.007812 86.675781 -46.6875 76.53125 -42.25 C 73.675781 -40.96875 70.867188 -40.035156 68.109375 -39.453125 L 93.828125 0 L 80.671875 0 L 57.03125 -37.53125 L 23.046875 -37.53125 Z M 23.046875 -48.015625 L 56.890625 -48.015625 C 67.328125 -48.015625 74.515625 -51.265625 78.453125 -57.765625 C 79.929688 -60.234375 80.671875 -63.382812 80.671875 -67.21875 C 80.671875 -73.425781 78.550781 -78.328125 74.3125 -81.921875 C 70.082031 -85.515625 64.46875 -87.3125 57.46875 -87.3125 L 23.046875 -87.3125 Z M 23.046875 -48.015625 "/></g></g></g><g fill="#e75b0f" fill-opacity="1"><g transform="translate(1319.776636, 1996.080398)"><g><path d="M 42.546875 -8.859375 C 52.492188 -8.859375 59.632812 -13 63.96875 -21.28125 L 76.09375 -21.28125 C 73.53125 -14.582031 69.460938 -9.160156 63.890625 -5.015625 C 58.328125 -0.878906 51.164062 1.1875 42.40625 1.1875 C 31.269531 1.1875 22.207031 -2.507812 15.21875 -9.90625 C 8.425781 -17.09375 5.03125 -26.101562 5.03125 -36.9375 C 5.03125 -47.875 8.28125 -56.882812 14.78125 -63.96875 C 21.675781 -71.363281 30.640625 -75.0625 41.671875 -75.0625 C 52.703125 -75.0625 61.664062 -71.363281 68.5625 -63.96875 C 75.0625 -56.882812 78.3125 -47.875 78.3125 -36.9375 L 78.3125 -32.5 L 16.40625 -32.5 C 17.1875 -25.707031 19.894531 -20.09375 24.53125 -15.65625 C 29.257812 -11.125 35.265625 -8.859375 42.546875 -8.859375 Z M 41.671875 -65.015625 C 34.867188 -65.015625 29.15625 -62.894531 24.53125 -58.65625 C 20.195312 -54.613281 17.535156 -49.34375 16.546875 -42.84375 L 66.78125 -42.84375 C 65.800781 -49.34375 63.140625 -54.613281 58.796875 -58.65625 C 54.171875 -62.894531 48.460938 -65.015625 41.671875 -65.015625 Z M 40.1875 -99.734375 L 56 -99.734375 L 40.1875 -84.21875 L 31.171875 -84.21875 Z M 40.1875 -99.734375 "/></g></g></g><g fill="#e75b0f" fill-opacity="1"><g transform="translate(1402.074739, 1996.080398)"><g><path d="M 20.6875 -73.875 L 20.6875 -62.34375 C 23.34375 -65.894531 26.59375 -68.898438 30.4375 -71.359375 C 34.28125 -73.828125 38.660156 -75.0625 43.578125 -75.0625 C 48.503906 -75.0625 52.738281 -74.367188 56.28125 -72.984375 C 59.832031 -71.609375 62.9375 -69.539062 65.59375 -66.78125 C 71.707031 -60.769531 74.765625 -52.84375 74.765625 -43 L 74.765625 0 L 63.6875 0 L 63.6875 -42.703125 C 63.6875 -49.492188 61.765625 -54.910156 57.921875 -58.953125 C 54.078125 -62.992188 49.101562 -65.015625 43 -65.015625 C 36.789062 -65.015625 31.519531 -62.941406 27.1875 -58.796875 C 22.851562 -54.566406 20.6875 -49.148438 20.6875 -42.546875 L 20.6875 0 L 9.609375 0 L 9.609375 -73.875 Z M 20.6875 -73.875 "/></g></g></g><g fill="#e75b0f" fill-opacity="1"><g transform="translate(1485.702626, 1996.080398)"><g><path d="M 41.671875 -75.0625 C 52.703125 -75.0625 61.664062 -71.363281 68.5625 -63.96875 C 75.0625 -56.882812 78.3125 -47.875 78.3125 -36.9375 C 78.3125 -26 75.0625 -16.988281 68.5625 -9.90625 C 61.664062 -2.507812 52.703125 1.1875 41.671875 1.1875 C 30.640625 1.1875 21.675781 -2.507812 14.78125 -9.90625 C 8.28125 -16.988281 5.03125 -26 5.03125 -36.9375 C 5.03125 -47.875 8.28125 -56.882812 14.78125 -63.96875 C 21.675781 -71.363281 30.640625 -75.0625 41.671875 -75.0625 Z M 41.671875 -8.859375 C 49.648438 -8.859375 55.953125 -11.617188 60.578125 -17.140625 C 65.003906 -22.359375 67.21875 -28.957031 67.21875 -36.9375 C 67.21875 -44.914062 65.003906 -51.515625 60.578125 -56.734375 C 55.953125 -62.253906 49.648438 -65.015625 41.671875 -65.015625 C 33.691406 -65.015625 27.382812 -62.253906 22.75 -56.734375 C 18.320312 -51.515625 16.109375 -44.914062 16.109375 -36.9375 C 16.109375 -28.957031 18.320312 -22.359375 22.75 -17.140625 C 27.382812 -11.617188 33.691406 -8.859375 41.671875 -8.859375 Z M 41.671875 -8.859375 "/></g></g></g><g fill="#e75b0f" fill-opacity="1"><g transform="translate(1569.035046, 1996.080398)"><g><path d="M 71.515625 -73.875 L 42.703125 0 L 29.703125 0 L 0.734375 -73.875 L 12.859375 -73.875 L 36.203125 -11.8125 L 59.390625 -73.875 Z M 71.515625 -73.875 "/></g></g></g><g fill="#e75b0f" fill-opacity="1"><g transform="translate(1641.285988, 1996.080398)"><g><path d="M 67.21875 -11.8125 C 61.3125 -3.144531 52.5 1.1875 40.78125 1.1875 C 30.144531 1.1875 21.476562 -2.507812 14.78125 -9.90625 C 8.28125 -17.1875 5.03125 -26.195312 5.03125 -36.9375 C 5.03125 -47.675781 8.28125 -56.6875 14.78125 -63.96875 C 21.476562 -71.363281 30.390625 -75.0625 41.515625 -75.0625 C 52.648438 -75.0625 61.21875 -70.675781 67.21875 -61.90625 L 67.21875 -73.875 L 78.3125 -73.875 L 78.3125 0 L 67.21875 0 Z M 42.25 -8.859375 C 50.226562 -8.859375 56.535156 -11.617188 61.171875 -17.140625 C 65.597656 -22.359375 67.8125 -28.957031 67.8125 -36.9375 C 67.8125 -44.914062 65.597656 -51.515625 61.171875 -56.734375 C 56.535156 -62.253906 50.226562 -65.015625 42.25 -65.015625 C 34.375 -65.015625 27.972656 -62.253906 23.046875 -56.734375 C 18.421875 -51.515625 16.109375 -44.914062 16.109375 -36.9375 C 16.109375 -28.957031 18.421875 -22.359375 23.046875 -17.140625 C 27.972656 -11.617188 34.375 -8.859375 42.25 -8.859375 Z M 42.25 -8.859375 "/></g></g></g><g fill="#e75b0f" fill-opacity="1"><g transform="translate(1729.198697, 1996.080398)"><g><path d="M 17.578125 0 L 17.578125 -64.125 L 2.515625 -64.125 L 2.515625 -73.875 L 17.578125 -73.875 L 17.578125 -100.328125 L 28.65625 -100.328125 L 28.65625 -73.875 L 45.65625 -73.875 L 45.65625 -64.125 L 28.65625 -64.125 L 28.65625 0 Z M 17.578125 0 "/></g></g></g><g fill="#e75b0f" fill-opacity="1"><g transform="translate(1777.366053, 1996.080398)"><g><path d="M 9.609375 -73.875 L 20.6875 -73.875 L 20.6875 0 L 9.609375 0 Z M 21.125 -100.765625 L 21.125 -86.28125 L 9.15625 -86.28125 L 9.15625 -100.765625 Z M 21.125 -100.765625 "/></g></g></g><g fill="#e75b0f" fill-opacity="1"><g transform="translate(1807.655271, 1996.080398)"><g><path d="M 41.671875 -75.0625 C 52.703125 -75.0625 61.664062 -71.363281 68.5625 -63.96875 C 75.0625 -56.882812 78.3125 -47.875 78.3125 -36.9375 C 78.3125 -26 75.0625 -16.988281 68.5625 -9.90625 C 61.664062 -2.507812 52.703125 1.1875 41.671875 1.1875 C 30.640625 1.1875 21.675781 -2.507812 14.78125 -9.90625 C 8.28125 -16.988281 5.03125 -26 5.03125 -36.9375 C 5.03125 -47.875 8.28125 -56.882812 14.78125 -63.96875 C 21.675781 -71.363281 30.640625 -75.0625 41.671875 -75.0625 Z M 41.671875 -8.859375 C 49.648438 -8.859375 55.953125 -11.617188 60.578125 -17.140625 C 65.003906 -22.359375 67.21875 -28.957031 67.21875 -36.9375 C 67.21875 -44.914062 65.003906 -51.515625 60.578125 -56.734375 C 55.953125 -62.253906 49.648438 -65.015625 41.671875 -65.015625 C 33.691406 -65.015625 27.382812 -62.253906 22.75 -56.734375 C 18.320312 -51.515625 16.109375 -44.914062 16.109375 -36.9375 C 16.109375 -28.957031 18.320312 -22.359375 22.75 -17.140625 C 27.382812 -11.617188 33.691406 -8.859375 41.671875 -8.859375 Z M 41.671875 -8.859375 "/></g></g></g><g fill="#e75b0f" fill-opacity="1"><g transform="translate(1890.987691, 1996.080398)"><g><path d="M 20.6875 -73.875 L 20.6875 -62.34375 C 23.34375 -65.894531 26.59375 -68.898438 30.4375 -71.359375 C 34.28125 -73.828125 38.660156 -75.0625 43.578125 -75.0625 C 48.503906 -75.0625 52.738281 -74.367188 56.28125 -72.984375 C 59.832031 -71.609375 62.9375 -69.539062 65.59375 -66.78125 C 71.707031 -60.769531 74.765625 -52.84375 74.765625 -43 L 74.765625 0 L 63.6875 0 L 63.6875 -42.703125 C 63.6875 -49.492188 61.765625 -54.910156 57.921875 -58.953125 C 54.078125 -62.992188 49.101562 -65.015625 43 -65.015625 C 36.789062 -65.015625 31.519531 -62.941406 27.1875 -58.796875 C 22.851562 -54.566406 20.6875 -49.148438 20.6875 -42.546875 L 20.6875 0 L 9.609375 0 L 9.609375 -73.875 Z M 20.6875 -73.875 "/></g></g></g><g fill="#e75b0f" fill-opacity="1"><g transform="translate(1974.61567, 1996.080398)"><g/></g></g><g fill="#e75b0f" fill-opacity="1"><g transform="translate(2006.086939, 1996.080398)"><g><path d="M 22.15625 -15.078125 L 22.15625 0 L 7.828125 0 L 7.828125 -15.078125 Z M 22.15625 -15.078125 "/></g></g></g><g fill="#e75b0f" fill-opacity="1"><g transform="translate(2036.08069, 1996.080398)"><g/></g></g><g fill="#e75b0f" fill-opacity="1"><g transform="translate(2067.55196, 1996.080398)"><g><path d="M 97.359375 0 L 85.109375 0 L 73.140625 -28.375 L 24.671875 -28.375 L 12.703125 0 L 0.4375 0 L 41.96875 -97.8125 L 55.84375 -97.8125 Z M 68.84375 -38.5625 L 48.90625 -86.28125 L 28.953125 -38.5625 Z M 68.84375 -38.5625 "/></g></g></g><g fill="#e75b0f" fill-opacity="1"><g transform="translate(2165.364005, 1996.080398)"><g><path d="M 20.6875 -62.640625 C 25.613281 -70.921875 33.097656 -75.0625 43.140625 -75.0625 C 48.066406 -75.0625 52.625 -73.753906 56.8125 -71.140625 C 61 -68.523438 64.273438 -64.859375 66.640625 -60.140625 C 69.984375 -66.335938 75.203125 -70.769531 82.296875 -73.4375 C 85.148438 -74.519531 88.375 -75.0625 91.96875 -75.0625 C 95.5625 -75.0625 99.007812 -74.34375 102.3125 -72.90625 C 105.613281 -71.476562 108.546875 -69.4375 111.109375 -66.78125 C 116.617188 -60.875 119.375 -53.488281 119.375 -44.625 L 119.375 0 L 108.296875 0 L 108.296875 -44.328125 C 108.296875 -50.429688 106.570312 -55.453125 103.125 -59.390625 C 99.675781 -63.140625 95.296875 -65.015625 89.984375 -65.015625 C 84.367188 -65.015625 79.6875 -63.191406 75.9375 -59.546875 C 72 -55.796875 70.03125 -50.671875 70.03125 -44.171875 L 70.03125 0 L 58.953125 0 L 58.953125 -44.328125 C 58.953125 -50.429688 57.226562 -55.453125 53.78125 -59.390625 C 50.332031 -63.140625 45.945312 -65.015625 40.625 -65.015625 C 35.007812 -65.015625 30.332031 -63.191406 26.59375 -59.546875 C 22.65625 -55.796875 20.6875 -50.671875 20.6875 -44.171875 L 20.6875 0 L 9.609375 0 L 9.609375 -73.875 L 20.6875 -73.875 Z M 20.6875 -62.640625 "/></g></g></g><g fill="#e75b0f" fill-opacity="1"><g transform="translate(2293.613185, 1996.080398)"><g><path d="M 42.546875 -8.859375 C 52.492188 -8.859375 59.632812 -13 63.96875 -21.28125 L 76.09375 -21.28125 C 73.53125 -14.582031 69.460938 -9.160156 63.890625 -5.015625 C 58.328125 -0.878906 51.164062 1.1875 42.40625 1.1875 C 31.269531 1.1875 22.207031 -2.507812 15.21875 -9.90625 C 8.425781 -17.09375 5.03125 -26.101562 5.03125 -36.9375 C 5.03125 -47.875 8.28125 -56.882812 14.78125 -63.96875 C 21.675781 -71.363281 30.640625 -75.0625 41.671875 -75.0625 C 52.703125 -75.0625 61.664062 -71.363281 68.5625 -63.96875 C 75.0625 -56.882812 78.3125 -47.875 78.3125 -36.9375 L 78.3125 -32.5 L 16.40625 -32.5 C 17.1875 -25.707031 19.894531 -20.09375 24.53125 -15.65625 C 29.257812 -11.125 35.265625 -8.859375 42.546875 -8.859375 Z M 41.671875 -65.015625 C 34.867188 -65.015625 29.15625 -62.894531 24.53125 -58.65625 C 20.195312 -54.613281 17.535156 -49.34375 16.546875 -42.84375 L 66.78125 -42.84375 C 65.800781 -49.34375 63.140625 -54.613281 58.796875 -58.65625 C 54.171875 -62.894531 48.460938 -65.015625 41.671875 -65.015625 Z M 40.1875 -99.734375 L 56 -99.734375 L 40.1875 -84.21875 L 31.171875 -84.21875 Z M 40.1875 -99.734375 "/></g></g></g><g fill="#e75b0f" fill-opacity="1"><g transform="translate(2375.911379, 1996.080398)"><g><path d="M 20.6875 -73.875 L 20.6875 -62.34375 C 23.34375 -65.894531 26.59375 -68.898438 30.4375 -71.359375 C 34.28125 -73.828125 38.660156 -75.0625 43.578125 -75.0625 C 48.503906 -75.0625 52.738281 -74.367188 56.28125 -72.984375 C 59.832031 -71.609375 62.9375 -69.539062 65.59375 -66.78125 C 71.707031 -60.769531 74.765625 -52.84375 74.765625 -43 L 74.765625 0 L 63.6875 0 L 63.6875 -42.703125 C 63.6875 -49.492188 61.765625 -54.910156 57.921875 -58.953125 C 54.078125 -62.992188 49.101562 -65.015625 43 -65.015625 C 36.789062 -65.015625 31.519531 -62.941406 27.1875 -58.796875 C 22.851562 -54.566406 20.6875 -49.148438 20.6875 -42.546875 L 20.6875 0 L 9.609375 0 L 9.609375 -73.875 Z M 20.6875 -73.875 "/></g></g></g><g fill="#e75b0f" fill-opacity="1"><g transform="translate(2459.539175, 1996.080398)"><g><path d="M 67.21875 -11.8125 C 61.3125 -3.144531 52.5 1.1875 40.78125 1.1875 C 30.144531 1.1875 21.476562 -2.507812 14.78125 -9.90625 C 8.28125 -17.1875 5.03125 -26.195312 5.03125 -36.9375 C 5.03125 -47.675781 8.28125 -56.6875 14.78125 -63.96875 C 21.476562 -71.363281 30.390625 -75.0625 41.515625 -75.0625 C 52.648438 -75.0625 61.21875 -70.675781 67.21875 -61.90625 L 67.21875 -73.875 L 78.3125 -73.875 L 78.3125 0 L 67.21875 0 Z M 42.25 -8.859375 C 50.226562 -8.859375 56.535156 -11.617188 61.171875 -17.140625 C 65.597656 -22.359375 67.8125 -28.957031 67.8125 -36.9375 C 67.8125 -44.914062 65.597656 -51.515625 61.171875 -56.734375 C 56.535156 -62.253906 50.226562 -65.015625 42.25 -65.015625 C 34.375 -65.015625 27.972656 -62.253906 23.046875 -56.734375 C 18.421875 -51.515625 16.109375 -44.914062 16.109375 -36.9375 C 16.109375 -28.957031 18.421875 -22.359375 23.046875 -17.140625 C 27.972656 -11.617188 34.375 -8.859375 42.25 -8.859375 Z M 42.25 -8.859375 "/></g></g></g><g fill="#e75b0f" fill-opacity="1"><g transform="translate(2547.451976, 1996.080398)"><g><path d="M 67.21875 -62.0625 L 67.21875 -73.875 L 78.3125 -73.875 L 78.3125 -2.21875 C 78.3125 8.414062 75.28125 16.515625 69.21875 22.078125 C 63.164062 27.648438 55.015625 30.4375 44.765625 30.4375 C 34.523438 30.4375 26.519531 28.460938 20.75 24.515625 C 14.988281 20.578125 11.078125 15.359375 9.015625 8.859375 L 21.28125 8.859375 C 24.425781 16.546875 31.613281 20.390625 42.84375 20.390625 C 51.414062 20.390625 57.617188 18.414062 61.453125 14.46875 C 65.296875 10.53125 67.21875 4.722656 67.21875 -2.953125 L 67.21875 -13.15625 C 61.21875 -4.382812 52.40625 0 40.78125 0 C 30.144531 0 21.476562 -3.644531 14.78125 -10.9375 C 8.28125 -18.03125 5.03125 -26.894531 5.03125 -37.53125 C 5.03125 -48.164062 8.28125 -57.03125 14.78125 -64.125 C 21.476562 -71.414062 30.414062 -75.0625 41.59375 -75.0625 C 52.769531 -75.0625 61.3125 -70.726562 67.21875 -62.0625 Z M 42.25 -10.046875 C 46.289062 -10.046875 49.882812 -10.757812 53.03125 -12.1875 C 56.1875 -13.613281 58.898438 -15.5625 61.171875 -18.03125 C 65.597656 -23.144531 67.8125 -29.644531 67.8125 -37.53125 C 67.8125 -45.40625 65.597656 -51.90625 61.171875 -57.03125 C 56.335938 -62.351562 50.03125 -65.015625 42.25 -65.015625 C 34.269531 -65.015625 27.867188 -62.351562 23.046875 -57.03125 C 18.421875 -51.8125 16.109375 -45.3125 16.109375 -37.53125 C 16.109375 -29.75 18.421875 -23.25 23.046875 -18.03125 C 27.867188 -12.707031 34.269531 -10.046875 42.25 -10.046875 Z M 42.25 -10.046875 "/></g></g></g><g fill="#e75b0f" fill-opacity="1"><g transform="translate(2635.364594, 1996.080398)"><g><path d="M 42.546875 -8.859375 C 52.492188 -8.859375 59.632812 -13 63.96875 -21.28125 L 76.09375 -21.28125 C 73.53125 -14.582031 69.460938 -9.160156 63.890625 -5.015625 C 58.328125 -0.878906 51.164062 1.1875 42.40625 1.1875 C 31.269531 1.1875 22.207031 -2.507812 15.21875 -9.90625 C 8.425781 -17.09375 5.03125 -26.101562 5.03125 -36.9375 C 5.03125 -47.875 8.28125 -56.882812 14.78125 -63.96875 C 21.675781 -71.363281 30.640625 -75.0625 41.671875 -75.0625 C 52.703125 -75.0625 61.664062 -71.363281 68.5625 -63.96875 C 75.0625 -56.882812 78.3125 -47.875 78.3125 -36.9375 L 78.3125 -32.5 L 16.40625 -32.5 C 17.1875 -25.707031 19.894531 -20.09375 24.53125 -15.65625 C 29.257812 -11.125 35.265625 -8.859375 42.546875 -8.859375 Z M 41.671875 -65.015625 C 34.867188 -65.015625 29.15625 -62.894531 24.53125 -58.65625 C 20.195312 -54.613281 17.535156 -49.34375 16.546875 -42.84375 L 66.78125 -42.84375 C 65.800781 -49.34375 63.140625 -54.613281 58.796875 -58.65625 C 54.171875 -62.894531 48.460938 -65.015625 41.671875 -65.015625 Z M 41.671875 -65.015625 "/></g></g></g><g fill="#e75b0f" fill-opacity="1"><g transform="translate(2717.662789, 1996.080398)"><g><path d="M 20.6875 -62.640625 C 25.613281 -70.921875 33.097656 -75.0625 43.140625 -75.0625 C 48.066406 -75.0625 52.625 -73.753906 56.8125 -71.140625 C 61 -68.523438 64.273438 -64.859375 66.640625 -60.140625 C 69.984375 -66.335938 75.203125 -70.769531 82.296875 -73.4375 C 85.148438 -74.519531 88.375 -75.0625 91.96875 -75.0625 C 95.5625 -75.0625 99.007812 -74.34375 102.3125 -72.90625 C 105.613281 -71.476562 108.546875 -69.4375 111.109375 -66.78125 C 116.617188 -60.875 119.375 -53.488281 119.375 -44.625 L 119.375 0 L 108.296875 0 L 108.296875 -44.328125 C 108.296875 -50.429688 106.570312 -55.453125 103.125 -59.390625 C 99.675781 -63.140625 95.296875 -65.015625 89.984375 -65.015625 C 84.367188 -65.015625 79.6875 -63.191406 75.9375 -59.546875 C 72 -55.796875 70.03125 -50.671875 70.03125 -44.171875 L 70.03125 0 L 58.953125 0 L 58.953125 -44.328125 C 58.953125 -50.429688 57.226562 -55.453125 53.78125 -59.390625 C 50.332031 -63.140625 45.945312 -65.015625 40.625 -65.015625 C 35.007812 -65.015625 30.332031 -63.191406 26.59375 -59.546875 C 22.65625 -55.796875 20.6875 -50.671875 20.6875 -44.171875 L 20.6875 0 L 9.609375 0 L 9.609375 -73.875 L 20.6875 -73.875 Z M 20.6875 -62.640625 "/></g></g></g><g fill="#e75b0f" fill-opacity="1"><g transform="translate(2845.911969, 1996.080398)"><g><path d="M 42.546875 -8.859375 C 52.492188 -8.859375 59.632812 -13 63.96875 -21.28125 L 76.09375 -21.28125 C 73.53125 -14.582031 69.460938 -9.160156 63.890625 -5.015625 C 58.328125 -0.878906 51.164062 1.1875 42.40625 1.1875 C 31.269531 1.1875 22.207031 -2.507812 15.21875 -9.90625 C 8.425781 -17.09375 5.03125 -26.101562 5.03125 -36.9375 C 5.03125 -47.875 8.28125 -56.882812 14.78125 -63.96875 C 21.675781 -71.363281 30.640625 -75.0625 41.671875 -75.0625 C 52.703125 -75.0625 61.664062 -71.363281 68.5625 -63.96875 C 75.0625 -56.882812 78.3125 -47.875 78.3125 -36.9375 L 78.3125 -32.5 L 16.40625 -32.5 C 17.1875 -25.707031 19.894531 -20.09375 24.53125 -15.65625 C 29.257812 -11.125 35.265625 -8.859375 42.546875 -8.859375 Z M 41.671875 -65.015625 C 34.867188 -65.015625 29.15625 -62.894531 24.53125 -58.65625 C 20.195312 -54.613281 17.535156 -49.34375 16.546875 -42.84375 L 66.78125 -42.84375 C 65.800781 -49.34375 63.140625 -54.613281 58.796875 -58.65625 C 54.171875 -62.894531 48.460938 -65.015625 41.671875 -65.015625 Z M 41.671875 -65.015625 "/></g></g></g><g fill="#e75b0f" fill-opacity="1"><g transform="translate(2928.210163, 1996.080398)"><g><path d="M 20.6875 -73.875 L 20.6875 -62.34375 C 23.34375 -65.894531 26.59375 -68.898438 30.4375 -71.359375 C 34.28125 -73.828125 38.660156 -75.0625 43.578125 -75.0625 C 48.503906 -75.0625 52.738281 -74.367188 56.28125 -72.984375 C 59.832031 -71.609375 62.9375 -69.539062 65.59375 -66.78125 C 71.707031 -60.769531 74.765625 -52.84375 74.765625 -43 L 74.765625 0 L 63.6875 0 L 63.6875 -42.703125 C 63.6875 -49.492188 61.765625 -54.910156 57.921875 -58.953125 C 54.078125 -62.992188 49.101562 -65.015625 43 -65.015625 C 36.789062 -65.015625 31.519531 -62.941406 27.1875 -58.796875 C 22.851562 -54.566406 20.6875 -49.148438 20.6875 -42.546875 L 20.6875 0 L 9.609375 0 L 9.609375 -73.875 Z M 20.6875 -73.875 "/></g></g></g><g fill="#e75b0f" fill-opacity="1"><g transform="translate(3011.837959, 1996.080398)"><g><path d="M 17.578125 0 L 17.578125 -64.125 L 2.515625 -64.125 L 2.515625 -73.875 L 17.578125 -73.875 L 17.578125 -100.328125 L 28.65625 -100.328125 L 28.65625 -73.875 L 45.65625 -73.875 L 45.65625 -64.125 L 28.65625 -64.125 L 28.65625 0 Z M 17.578125 0 "/></g></g></g><g fill="#e75b0f" fill-opacity="1"><g transform="translate(3060.006821, 1996.080398)"><g/></g></g></svg>