<svg xmlns="http://www.w3.org/2000/svg" xmlns:xlink="http://www.w3.org/1999/xlink" width="4535" zoomAndPan="magnify" viewBox="0 0 3401.25 2551.499951" height="3402" preserveAspectRatio="xMidYMid meet" version="1.0"><defs><g/><clipPath id="54ad6e610e"><path d="M 0 0.03125 L 3400.5 0.03125 L 3400.5 2550.96875 L 0 2550.96875 Z M 0 0.03125 " clip-rule="nonzero"/></clipPath><clipPath id="74945a0455"><path d="M 445 1753.699219 L 2926 1753.699219 L 2926 1764.949219 L 445 1764.949219 Z M 445 1753.699219 " clip-rule="nonzero"/></clipPath><clipPath id="004d19b093"><path d="M 621 1194.96875 L 986 1194.96875 L 986 1626.875 L 621 1626.875 Z M 621 1194.96875 " clip-rule="nonzero"/></clipPath><clipPath id="868558c63a"><path d="M 1017.667969 1183.972656 L 1460.820312 1183.972656 L 1460.820312 1627 L 1017.667969 1627 Z M 1017.667969 1183.972656 " clip-rule="nonzero"/></clipPath><clipPath id="cfd0992bb2"><path d="M 1952.730469 1183.972656 L 2395.882812 1183.972656 L 2395.882812 1627 L 1952.730469 1627 Z M 1952.730469 1183.972656 " clip-rule="nonzero"/></clipPath><clipPath id="db8d217347"><path d="M 1484.679688 1067 L 2083.050781 1067 L 2083.050781 1628.851562 L 1484.679688 1628.851562 Z M 1484.679688 1067 " clip-rule="nonzero"/></clipPath><clipPath id="3e177d8566"><rect x="0" width="432" y="0" height="462"/></clipPath></defs><g clip-path="url(#54ad6e610e)"><path fill="#ffffff" d="M 0 0.03125 L 3400.5 0.03125 L 3400.5 2550.96875 L 0 2550.96875 Z M 0 0.03125 " fill-opacity="1" fill-rule="nonzero"/><path fill="#303843" d="M 0 0.03125 L 3400.5 0.03125 L 3400.5 2550.96875 L 0 2550.96875 Z M 0 0.03125 " fill-opacity="1" fill-rule="nonzero"/></g><g clip-path="url(#74945a0455)"><path fill="#ffffff" d="M 445.378906 1753.699219 L 2925.433594 1753.699219 L 2925.433594 1765.078125 L 445.378906 1765.078125 Z M 445.378906 1753.699219 " fill-opacity="1" fill-rule="nonzero"/></g><path fill="#ffffff" d="M 985.914062 1437.683594 L 985.914062 1356.878906 L 837.773438 1356.878906 L 837.773438 1437.683594 L 985.914062 1437.683594 " fill-opacity="1" fill-rule="nonzero"/><g clip-path="url(#004d19b093)"><path fill="#ffffff" d="M 905.109375 1545.128906 L 837.773438 1545.128906 C 763.5625 1545.128906 703.390625 1484.960938 703.390625 1410.746094 C 703.390625 1336.535156 763.5625 1276.363281 837.773438 1276.363281 L 985.914062 1276.074219 L 985.914062 1194.894531 L 837.773438 1194.894531 C 718.5625 1194.894531 621.917969 1291.539062 621.917969 1410.746094 C 621.917969 1529.957031 718.5625 1626.601562 837.773438 1626.601562 L 985.914062 1626.601562 L 985.914062 1455.640625 L 905.109375 1455.640625 L 905.109375 1545.128906 " fill-opacity="1" fill-rule="nonzero"/></g><g clip-path="url(#868558c63a)"><path fill="#ffffff" d="M 1017.667969 1626.832031 L 1197.578125 1183.972656 L 1280.613281 1183.972656 L 1460.527344 1626.832031 L 1119.921875 1626.832031 L 1156.058594 1543.792969 L 1335.972656 1543.792969 L 1239.863281 1302.757812 L 1104.929688 1626.832031 L 1017.667969 1626.832031 " fill-opacity="1" fill-rule="nonzero"/></g><g clip-path="url(#cfd0992bb2)"><path fill="#ffffff" d="M 1952.730469 1626.832031 L 2132.640625 1183.972656 L 2215.675781 1183.972656 L 2395.589844 1626.832031 L 2054.988281 1626.832031 L 2091.125 1543.792969 L 2271.035156 1543.792969 L 2174.929688 1302.757812 L 2039.996094 1626.832031 L 1952.730469 1626.832031 " fill-opacity="1" fill-rule="nonzero"/></g><g clip-path="url(#db8d217347)"><path fill="#e75b0f" d="M 1779.492188 1255.859375 L 1707.59375 1371.527344 L 1590.410156 1183 L 1484.679688 1183 L 1484.679688 1628.832031 L 1581.488281 1628.832031 L 1581.488281 1339.675781 L 1655.667969 1452.273438 L 1705.683594 1528.203125 L 1707.617188 1531.136719 L 1838.464844 1330.316406 C 1909.03125 1222.007812 2016.671875 1330.347656 2068.132812 1397.476562 L 2083.011719 1391.164062 C 2057.894531 1307.003906 1988.433594 1217.84375 1887.554688 1152.125 C 1790.972656 1089.199219 1686.394531 1061.300781 1601.164062 1068.722656 L 1600.269531 1082.902344 C 1679.941406 1101.554688 1812.515625 1161.144531 1779.492188 1255.859375 M 1930.511719 1628.832031 L 1930.511719 1306.171875 C 1903.703125 1298.890625 1877.117188 1305.96875 1854.460938 1340.746094 L 1833.707031 1372.601562 L 1833.707031 1628.832031 Z M 1939.851562 1174.691406 L 1938.8125 1176.300781 C 1923.921875 1164.402344 1908.644531 1153.394531 1893.253906 1143.375 C 1884.859375 1137.898438 1876.195312 1132.566406 1867.320312 1127.445312 L 1867.320312 1127.4375 C 1880.308594 1107.484375 1907.285156 1101.800781 1927.226562 1114.789062 C 1947.175781 1127.789062 1952.855469 1154.75 1939.851562 1174.691406 Z M 1939.851562 1174.691406 " fill-opacity="1" fill-rule="evenodd"/></g><g transform="matrix(1, 0, 0, 1, 2323, 1183)"><g clip-path="url(#3e177d8566)"><g fill="#ffffff" fill-opacity="1"><g transform="translate(0.536922, 441.174976)"><g><path d="M 250.921875 -356.140625 L 250.921875 0 L 160.640625 0 L 160.640625 -356.140625 L 13.703125 -356.140625 L 13.703125 -435.84375 L 417.78125 -435.84375 L 394.125 -376.0625 C 392.050781 -370.25 388.316406 -365.472656 382.921875 -361.734375 C 377.523438 -358.003906 371.710938 -356.140625 365.484375 -356.140625 Z M 250.921875 -356.140625 "/></g></g></g></g></g></svg>