<svg xmlns="http://www.w3.org/2000/svg" xmlns:xlink="http://www.w3.org/1999/xlink" width="4535" zoomAndPan="magnify" viewBox="0 0 3401.25 2551.499951" height="3402" preserveAspectRatio="xMidYMid meet" version="1.0"><defs><g/><clipPath id="0158f41e96"><path d="M 0 0.03125 L 3400.5 0.03125 L 3400.5 2550.96875 L 0 2550.96875 Z M 0 0.03125 " clip-rule="nonzero"/></clipPath><clipPath id="11804f0464"><path d="M 989.914062 351.449219 L 2424 351.449219 L 2424 1008 L 989.914062 1008 Z M 989.914062 351.449219 " clip-rule="nonzero"/></clipPath><clipPath id="eb98e38dcc"><path d="M 445 1753.699219 L 2926 1753.699219 L 2926 1764.949219 L 445 1764.949219 Z M 445 1753.699219 " clip-rule="nonzero"/></clipPath><clipPath id="f40a626bff"><path d="M 621 1194.96875 L 986 1194.96875 L 986 1626.871094 L 621 1626.871094 Z M 621 1194.96875 " clip-rule="nonzero"/></clipPath><clipPath id="47b186759c"><path d="M 1017.667969 1183.972656 L 1460.820312 1183.972656 L 1460.820312 1627 L 1017.667969 1627 Z M 1017.667969 1183.972656 " clip-rule="nonzero"/></clipPath><clipPath id="ba3d0bf9da"><path d="M 1952.730469 1183.972656 L 2395.882812 1183.972656 L 2395.882812 1627 L 1952.730469 1627 Z M 1952.730469 1183.972656 " clip-rule="nonzero"/></clipPath><clipPath id="0267e88f7e"><path d="M 1484.679688 1067 L 2083.050781 1067 L 2083.050781 1628.851562 L 1484.679688 1628.851562 Z M 1484.679688 1067 " clip-rule="nonzero"/></clipPath><clipPath id="786748591b"><rect x="0" width="432" y="0" height="462"/></clipPath></defs><g clip-path="url(#0158f41e96)"><path fill="#ffffff" d="M 0 0.03125 L 3400.5 0.03125 L 3400.5 2550.96875 L 0 2550.96875 Z M 0 0.03125 " fill-opacity="1" fill-rule="nonzero"/><path fill="#303843" d="M 0 0.03125 L 3400.5 0.03125 L 3400.5 2550.96875 L 0 2550.96875 Z M 0 0.03125 " fill-opacity="1" fill-rule="nonzero"/></g><g clip-path="url(#11804f0464)"><path fill="#e75b0f" d="M 995.628906 861.804688 L 995.628906 861.808594 L 992.746094 858.921875 L 1325.917969 859.003906 C 1326.289062 859.003906 1326.660156 859.074219 1327.003906 859.214844 L 1678.175781 1002.214844 L 1676.234375 1002.132812 L 2011.574219 898.402344 L 2011.429688 903.867188 L 1825.160156 835.3125 L 1826.523438 835.46875 L 1585.882812 865.96875 C 1585.0625 866.074219 1584.238281 865.820312 1583.617188 865.277344 C 1582.996094 864.730469 1582.640625 863.945312 1582.632812 863.121094 L 1581.382812 604.195312 C 1581.378906 603.324219 1581.769531 602.5 1582.441406 601.949219 L 1729.648438 481.625 C 1730.261719 481.121094 1731.054688 480.894531 1731.839844 480.996094 C 1732.625 481.097656 1733.335938 481.515625 1733.804688 482.15625 L 1832.597656 617.203125 C 1832.953125 617.691406 1833.148438 618.28125 1833.152344 618.886719 L 1834.539062 819.535156 L 1832.4375 816.777344 L 1960.246094 852.765625 L 1956.578125 855.5625 L 1955.171875 647.730469 L 1955.558594 649.152344 L 1799.589844 378.246094 L 1803.914062 379.042969 L 1571.78125 568.195312 L 1572.84375 565.949219 L 1573.75 864.511719 C 1573.753906 865.378906 1573.363281 866.199219 1572.695312 866.75 C 1572.023438 867.300781 1571.140625 867.519531 1570.292969 867.347656 L 1511.109375 855.382812 C 1509.765625 855.109375 1508.800781 853.929688 1508.796875 852.558594 L 1508.417969 593.773438 C 1508.414062 592.914062 1508.796875 592.097656 1509.460938 591.546875 L 1597.25 518.757812 L 1598.535156 523.808594 L 1494.503906 503.421875 L 1497.945312 500.589844 L 1497.757812 847.796875 C 1497.757812 848.679688 1497.351562 849.511719 1496.664062 850.058594 C 1495.972656 850.605469 1495.070312 850.808594 1494.210938 850.605469 L 1443.730469 838.757812 C 1442.429688 838.453125 1441.507812 837.296875 1441.503906 835.960938 L 1440.53125 540.476562 C 1440.527344 539.667969 1440.863281 538.898438 1441.457031 538.347656 L 1480.515625 502.207031 C 1481.359375 501.429688 1482.585938 501.222656 1483.636719 501.6875 C 1484.691406 502.148438 1485.367188 503.191406 1485.359375 504.339844 L 1484.796875 614.464844 C 1484.792969 615.300781 1484.425781 616.09375 1483.792969 616.636719 L 1409.171875 680.859375 L 1410.175781 678.671875 L 1410.132812 851.414062 L 1408.09375 848.65625 L 1645.515625 921.613281 L 1641.78125 924.378906 L 1640.710938 530.933594 C 1640.707031 530.058594 1641.101562 529.230469 1641.785156 528.683594 L 1860.644531 352.082031 C 1861.292969 351.5625 1862.128906 351.34375 1862.945312 351.484375 C 1863.765625 351.625 1864.480469 352.109375 1864.914062 352.816406 L 2043.910156 643.816406 C 2044.183594 644.261719 2044.332031 644.773438 2044.339844 645.296875 L 2046.617188 861.570312 L 2043.753906 858.714844 L 2420.910156 861.402344 C 2422.503906 861.414062 2423.789062 862.714844 2423.777344 864.308594 C 2423.765625 865.902344 2422.464844 867.1875 2420.871094 867.175781 L 2043.714844 864.484375 C 2042.140625 864.472656 2040.863281 863.203125 2040.847656 861.628906 L 2038.566406 645.355469 L 2038.996094 646.839844 L 1860 355.839844 L 1864.269531 356.574219 L 1645.40625 533.171875 L 1646.480469 530.921875 L 1647.554688 924.363281 C 1647.554688 925.28125 1647.125 926.144531 1646.386719 926.691406 C 1645.648438 927.234375 1644.699219 927.398438 1643.820312 927.128906 L 1406.398438 854.171875 C 1405.1875 853.800781 1404.359375 852.679688 1404.363281 851.414062 L 1404.402344 678.671875 C 1404.402344 677.832031 1404.769531 677.03125 1405.40625 676.484375 L 1480.03125 612.265625 L 1479.027344 614.4375 L 1479.589844 504.3125 L 1484.433594 506.445312 L 1445.375 542.585938 L 1446.300781 540.457031 L 1447.277344 835.941406 L 1445.050781 833.140625 L 1495.53125 844.988281 L 1491.984375 847.796875 L 1492.175781 500.589844 C 1492.175781 499.726562 1492.5625 498.910156 1493.226562 498.359375 C 1493.894531 497.8125 1494.769531 497.59375 1495.617188 497.757812 L 1599.644531 518.148438 C 1600.738281 518.359375 1601.613281 519.1875 1601.886719 520.265625 C 1602.160156 521.347656 1601.789062 522.488281 1600.933594 523.199219 L 1513.144531 595.992188 L 1514.1875 593.765625 L 1514.570312 852.546875 L 1512.253906 849.722656 L 1571.4375 861.691406 L 1567.976562 864.527344 L 1567.070312 565.964844 C 1567.066406 565.09375 1567.457031 564.269531 1568.132812 563.71875 L 1800.269531 374.566406 C 1800.925781 374.035156 1801.78125 373.8125 1802.613281 373.96875 C 1803.445312 374.121094 1804.167969 374.632812 1804.589844 375.367188 L 1960.558594 646.273438 C 1960.808594 646.703125 1960.941406 647.195312 1960.945312 647.691406 L 1962.347656 855.523438 C 1962.355469 856.429688 1961.933594 857.289062 1961.210938 857.839844 C 1960.492188 858.386719 1959.554688 858.566406 1958.679688 858.320312 L 1830.871094 822.335938 C 1829.636719 821.984375 1828.777344 820.863281 1828.769531 819.578125 L 1827.382812 618.925781 L 1827.9375 620.613281 L 1729.144531 485.5625 L 1733.300781 486.09375 L 1586.09375 606.417969 L 1587.152344 604.167969 L 1588.40625 863.09375 L 1585.15625 860.246094 L 1825.796875 829.742188 C 1826.253906 829.683594 1826.722656 829.738281 1827.15625 829.898438 L 2013.421875 898.453125 C 2014.582031 898.878906 2015.34375 900 2015.3125 901.234375 C 2015.277344 902.472656 2014.460938 903.550781 2013.277344 903.917969 L 1677.9375 1007.644531 C 1677.300781 1007.84375 1676.613281 1007.8125 1675.996094 1007.5625 L 1324.828125 864.5625 L 1325.914062 864.773438 L 992.742188 864.691406 C 991.148438 864.691406 989.859375 863.402344 989.859375 861.808594 L 989.859375 861.804688 C 989.859375 860.210938 991.148438 858.917969 992.742188 858.917969 C 994.335938 858.917969 995.628906 860.210938 995.628906 861.804688 Z M 995.628906 861.804688 " fill-opacity="1" fill-rule="nonzero"/></g><g clip-path="url(#eb98e38dcc)"><path fill="#ffffff" d="M 445.378906 1753.699219 L 2925.433594 1753.699219 L 2925.433594 1765.078125 L 445.378906 1765.078125 Z M 445.378906 1753.699219 " fill-opacity="1" fill-rule="nonzero"/></g><path fill="#ffffff" d="M 985.914062 1437.683594 L 985.914062 1356.878906 L 837.773438 1356.878906 L 837.773438 1437.683594 L 985.914062 1437.683594 " fill-opacity="1" fill-rule="nonzero"/><g clip-path="url(#f40a626bff)"><path fill="#ffffff" d="M 905.109375 1545.128906 L 837.773438 1545.128906 C 763.5625 1545.128906 703.390625 1484.960938 703.390625 1410.746094 C 703.390625 1336.535156 763.5625 1276.363281 837.773438 1276.363281 L 985.914062 1276.074219 L 985.914062 1194.894531 L 837.773438 1194.894531 C 718.5625 1194.894531 621.917969 1291.539062 621.917969 1410.746094 C 621.917969 1529.957031 718.5625 1626.601562 837.773438 1626.601562 L 985.914062 1626.601562 L 985.914062 1455.640625 L 905.109375 1455.640625 L 905.109375 1545.128906 " fill-opacity="1" fill-rule="nonzero"/></g><g clip-path="url(#47b186759c)"><path fill="#ffffff" d="M 1017.667969 1626.832031 L 1197.578125 1183.972656 L 1280.613281 1183.972656 L 1460.527344 1626.832031 L 1119.921875 1626.832031 L 1156.058594 1543.796875 L 1335.972656 1543.796875 L 1239.863281 1302.757812 L 1104.929688 1626.832031 L 1017.667969 1626.832031 " fill-opacity="1" fill-rule="nonzero"/></g><g clip-path="url(#ba3d0bf9da)"><path fill="#ffffff" d="M 1952.730469 1626.832031 L 2132.640625 1183.972656 L 2215.675781 1183.972656 L 2395.589844 1626.832031 L 2054.988281 1626.832031 L 2091.125 1543.796875 L 2271.035156 1543.796875 L 2174.929688 1302.757812 L 2039.996094 1626.832031 L 1952.730469 1626.832031 " fill-opacity="1" fill-rule="nonzero"/></g><g clip-path="url(#0267e88f7e)"><path fill="#e75b0f" d="M 1779.492188 1255.859375 L 1707.59375 1371.527344 L 1590.410156 1183 L 1484.679688 1183 L 1484.679688 1628.832031 L 1581.488281 1628.832031 L 1581.488281 1339.675781 L 1655.667969 1452.273438 L 1705.683594 1528.203125 L 1707.617188 1531.136719 L 1838.464844 1330.316406 C 1909.03125 1222.007812 2016.671875 1330.347656 2068.132812 1397.476562 L 2083.011719 1391.164062 C 2057.894531 1307.003906 1988.433594 1217.847656 1887.554688 1152.125 C 1790.972656 1089.199219 1686.394531 1061.300781 1601.164062 1068.722656 L 1600.269531 1082.902344 C 1679.941406 1101.554688 1812.515625 1161.144531 1779.492188 1255.859375 M 1930.511719 1628.832031 L 1930.511719 1306.171875 C 1903.703125 1298.890625 1877.117188 1305.96875 1854.460938 1340.746094 L 1833.707031 1372.601562 L 1833.707031 1628.832031 Z M 1939.851562 1174.695312 L 1938.8125 1176.300781 C 1923.921875 1164.402344 1908.644531 1153.394531 1893.253906 1143.375 C 1884.859375 1137.902344 1876.195312 1132.566406 1867.320312 1127.445312 L 1867.320312 1127.4375 C 1880.308594 1107.484375 1907.285156 1101.800781 1927.226562 1114.792969 C 1947.175781 1127.789062 1952.855469 1154.75 1939.851562 1174.695312 Z M 1939.851562 1174.695312 " fill-opacity="1" fill-rule="evenodd"/></g><g transform="matrix(1, 0, 0, 1, 2323, 1183)"><g clip-path="url(#786748591b)"><g fill="#ffffff" fill-opacity="1"><g transform="translate(0.536922, 441.174741)"><g><path d="M 250.921875 -356.140625 L 250.921875 0 L 160.640625 0 L 160.640625 -356.140625 L 13.703125 -356.140625 L 13.703125 -435.84375 L 417.78125 -435.84375 L 394.125 -376.0625 C 392.050781 -370.25 388.316406 -365.472656 382.921875 -361.734375 C 377.523438 -358.003906 371.710938 -356.140625 365.484375 -356.140625 Z M 250.921875 -356.140625 "/></g></g></g></g></g></svg>