<svg xmlns="http://www.w3.org/2000/svg" xmlns:xlink="http://www.w3.org/1999/xlink" width="4535" zoomAndPan="magnify" viewBox="0 0 3401.25 2551.499951" height="3402" preserveAspectRatio="xMidYMid meet" version="1.0"><defs><g/><clipPath id="8ba7a492d3"><path d="M 0 0.03125 L 3400.5 0.03125 L 3400.5 2550.96875 L 0 2550.96875 Z M 0 0.03125 " clip-rule="nonzero"/></clipPath><clipPath id="72e2e9ca0c"><path d="M 711.914062 1.859375 L 2145.828125 1.859375 L 2145.828125 658.53125 L 711.914062 658.53125 Z M 711.914062 1.859375 " clip-rule="nonzero"/></clipPath><clipPath id="bb7fcd0337"><path d="M 166 1404.109375 L 2649 1404.109375 L 2649 1415.59375 L 166 1415.59375 Z M 166 1404.109375 " clip-rule="nonzero"/></clipPath><clipPath id="abbc09b390"><path d="M 343 845.378906 L 708 845.378906 L 708 1277.417969 L 343 1277.417969 Z M 343 845.378906 " clip-rule="nonzero"/></clipPath><clipPath id="69938291e8"><path d="M 739.667969 834.382812 L 1182.472656 834.382812 L 1182.472656 1277.1875 L 739.667969 1277.1875 Z M 739.667969 834.382812 " clip-rule="nonzero"/></clipPath><clipPath id="3437567ea2"><path d="M 1674.730469 834.382812 L 2117.535156 834.382812 L 2117.535156 1277.1875 L 1674.730469 1277.1875 Z M 1674.730469 834.382812 " clip-rule="nonzero"/></clipPath><clipPath id="e64190136c"><path d="M 1206.679688 717 L 1805.222656 717 L 1805.222656 1279.320312 L 1206.679688 1279.320312 Z M 1206.679688 717 " clip-rule="nonzero"/></clipPath><clipPath id="c4e1d5357b"><rect x="0" width="432" y="0" height="463"/></clipPath><clipPath id="6f86e8ab39"><path d="M 0.578125 1525 L 2814.199219 1525 L 2814.199219 1678.109375 L 0.578125 1678.109375 Z M 0.578125 1525 " clip-rule="nonzero"/></clipPath><clipPath id="280e76459d"><rect x="0" width="2815" y="0" height="154"/></clipPath><clipPath id="9ca8f86938"><rect x="0" width="2815" y="0" height="1679"/></clipPath></defs><g clip-path="url(#8ba7a492d3)"><path fill="#ffffff" d="M 0 0.03125 L 3400.5 0.03125 L 3400.5 2550.96875 L 0 2550.96875 Z M 0 0.03125 " fill-opacity="1" fill-rule="nonzero"/><path fill="#ffffff" d="M 0 0.03125 L 3400.5 0.03125 L 3400.5 2550.96875 L 0 2550.96875 Z M 0 0.03125 " fill-opacity="1" fill-rule="nonzero"/></g><g transform="matrix(1, 0, 0, 1, 278, 146)"><g clip-path="url(#9ca8f86938)"><g clip-path="url(#72e2e9ca0c)"><path fill="#e75b0f" d="M 717.628906 512.210938 L 717.628906 512.214844 L 714.746094 509.328125 L 1047.917969 509.410156 C 1048.289062 509.410156 1048.660156 509.480469 1049.003906 509.621094 L 1400.175781 652.621094 L 1398.234375 652.539062 L 1733.574219 548.808594 L 1733.429688 554.273438 L 1547.164062 485.71875 L 1548.523438 485.875 L 1307.882812 516.375 C 1307.0625 516.480469 1306.238281 516.226562 1305.617188 515.683594 C 1304.996094 515.136719 1304.640625 514.351562 1304.636719 513.527344 L 1303.382812 254.601562 C 1303.378906 253.730469 1303.769531 252.90625 1304.441406 252.355469 L 1451.648438 132.03125 C 1452.261719 131.527344 1453.054688 131.300781 1453.839844 131.402344 C 1454.625 131.503906 1455.335938 131.921875 1455.804688 132.5625 L 1554.597656 267.609375 C 1554.953125 268.097656 1555.148438 268.6875 1555.152344 269.292969 L 1556.539062 469.941406 L 1554.4375 467.183594 L 1682.246094 503.171875 L 1678.578125 505.96875 L 1677.171875 298.136719 L 1677.558594 299.558594 L 1521.589844 28.652344 L 1525.914062 29.449219 L 1293.78125 218.601562 L 1294.84375 216.355469 L 1295.75 514.917969 C 1295.753906 515.785156 1295.363281 516.605469 1294.695312 517.15625 C 1294.023438 517.707031 1293.140625 517.925781 1292.292969 517.753906 L 1233.113281 505.785156 C 1231.765625 505.515625 1230.800781 504.335938 1230.796875 502.964844 L 1230.417969 244.179688 C 1230.414062 243.320312 1230.800781 242.503906 1231.460938 241.953125 L 1319.25 169.164062 L 1320.535156 174.214844 L 1216.503906 153.828125 L 1219.945312 150.996094 L 1219.757812 498.203125 C 1219.757812 499.085938 1219.351562 499.917969 1218.664062 500.464844 C 1217.972656 501.011719 1217.070312 501.214844 1216.210938 501.011719 L 1165.730469 489.164062 C 1164.429688 488.859375 1163.507812 487.703125 1163.503906 486.367188 L 1162.53125 190.882812 C 1162.527344 190.074219 1162.863281 189.304688 1163.457031 188.753906 L 1202.515625 152.613281 C 1203.359375 151.835938 1204.585938 151.628906 1205.636719 152.09375 C 1206.691406 152.554688 1207.367188 153.597656 1207.359375 154.746094 L 1206.796875 264.871094 C 1206.792969 265.707031 1206.425781 266.5 1205.792969 267.042969 L 1131.171875 331.265625 L 1132.175781 329.078125 L 1132.132812 501.820312 L 1130.09375 499.0625 L 1367.515625 572.019531 L 1363.78125 574.785156 L 1362.710938 181.339844 C 1362.707031 180.464844 1363.101562 179.636719 1363.785156 179.089844 L 1582.644531 2.488281 C 1583.292969 1.96875 1584.128906 1.75 1584.945312 1.890625 C 1585.765625 2.03125 1586.480469 2.515625 1586.914062 3.222656 L 1765.910156 294.21875 C 1766.183594 294.667969 1766.332031 295.179688 1766.339844 295.703125 L 1768.617188 511.972656 L 1765.753906 509.121094 L 2142.910156 511.808594 C 2144.503906 511.820312 2145.789062 513.121094 2145.777344 514.714844 C 2145.765625 516.308594 2144.464844 517.59375 2142.871094 517.582031 L 1765.714844 514.890625 C 1764.140625 514.878906 1762.863281 513.609375 1762.847656 512.035156 L 1760.566406 295.761719 L 1760.996094 297.246094 L 1582 6.246094 L 1586.269531 6.980469 L 1367.410156 183.578125 L 1368.480469 181.324219 L 1369.554688 574.769531 C 1369.558594 575.6875 1369.125 576.550781 1368.386719 577.097656 C 1367.648438 577.640625 1366.699219 577.804688 1365.820312 577.535156 L 1128.398438 504.578125 C 1127.1875 504.207031 1126.359375 503.085938 1126.363281 501.820312 L 1126.402344 329.078125 C 1126.402344 328.238281 1126.769531 327.4375 1127.40625 326.890625 L 1202.03125 262.671875 L 1201.027344 264.84375 L 1201.589844 154.71875 L 1206.433594 156.851562 L 1167.375 192.992188 L 1168.300781 190.863281 L 1169.277344 486.347656 L 1167.050781 483.546875 L 1217.53125 495.394531 L 1213.984375 498.203125 L 1214.175781 150.996094 C 1214.175781 150.132812 1214.5625 149.316406 1215.226562 148.765625 C 1215.894531 148.21875 1216.769531 148 1217.617188 148.164062 L 1321.644531 168.554688 C 1322.738281 168.765625 1323.613281 169.59375 1323.886719 170.671875 C 1324.160156 171.753906 1323.789062 172.894531 1322.933594 173.605469 L 1235.144531 246.398438 L 1236.1875 244.171875 L 1236.570312 502.953125 L 1234.253906 500.128906 L 1293.4375 512.097656 L 1289.976562 514.933594 L 1289.070312 216.371094 C 1289.066406 215.5 1289.457031 214.675781 1290.132812 214.125 L 1522.269531 24.972656 C 1522.925781 24.441406 1523.78125 24.21875 1524.613281 24.375 C 1525.445312 24.527344 1526.167969 25.039062 1526.589844 25.773438 L 1682.558594 296.679688 C 1682.808594 297.109375 1682.941406 297.597656 1682.945312 298.097656 L 1684.347656 505.929688 C 1684.355469 506.835938 1683.933594 507.695312 1683.210938 508.246094 C 1682.492188 508.792969 1681.554688 508.972656 1680.679688 508.726562 L 1552.871094 472.742188 C 1551.636719 472.390625 1550.777344 471.269531 1550.769531 469.984375 L 1549.382812 269.332031 L 1549.9375 271.015625 L 1451.144531 135.96875 L 1455.300781 136.5 L 1308.09375 256.824219 L 1309.15625 254.574219 L 1310.40625 513.5 L 1307.15625 510.648438 L 1547.796875 480.148438 C 1548.253906 480.089844 1548.722656 480.144531 1549.15625 480.304688 L 1735.421875 548.859375 C 1736.585938 549.285156 1737.34375 550.40625 1737.3125 551.640625 C 1737.277344 552.878906 1736.460938 553.957031 1735.277344 554.324219 L 1399.9375 658.050781 C 1399.300781 658.25 1398.613281 658.21875 1397.996094 657.96875 L 1046.828125 514.96875 L 1047.914062 515.179688 L 714.742188 515.097656 C 713.148438 515.097656 711.859375 513.808594 711.859375 512.214844 L 711.859375 512.210938 C 711.859375 510.617188 713.148438 509.324219 714.742188 509.324219 C 716.339844 509.324219 717.628906 510.617188 717.628906 512.210938 Z M 717.628906 512.210938 " fill-opacity="1" fill-rule="nonzero"/></g><g clip-path="url(#bb7fcd0337)"><path fill="#303843" d="M 166.78125 1404.109375 L 2648.03125 1404.109375 L 2648.03125 1415.492188 L 166.78125 1415.492188 Z M 166.78125 1404.109375 " fill-opacity="1" fill-rule="nonzero"/></g><path fill="#303843" d="M 707.917969 1088.09375 L 707.917969 1007.289062 L 559.773438 1007.289062 L 559.773438 1088.09375 L 707.917969 1088.09375 " fill-opacity="1" fill-rule="nonzero"/><g clip-path="url(#abbc09b390)"><path fill="#303843" d="M 627.113281 1195.542969 L 559.773438 1195.542969 C 485.5625 1195.542969 425.390625 1135.371094 425.390625 1061.160156 C 425.390625 986.949219 485.5625 926.777344 559.773438 926.777344 L 707.917969 926.484375 L 707.917969 845.304688 L 559.773438 845.304688 C 440.566406 845.304688 343.917969 941.949219 343.917969 1061.160156 C 343.917969 1180.367188 440.566406 1277.015625 559.773438 1277.015625 L 707.917969 1277.015625 L 707.917969 1106.050781 L 627.113281 1106.050781 L 627.113281 1195.542969 " fill-opacity="1" fill-rule="nonzero"/></g><g clip-path="url(#69938291e8)"><path fill="#303843" d="M 739.667969 1277.242188 L 919.578125 834.382812 L 1002.613281 834.382812 L 1182.527344 1277.242188 L 841.925781 1277.242188 L 878.058594 1194.207031 L 1057.972656 1194.207031 L 961.867188 953.171875 L 826.929688 1277.242188 L 739.667969 1277.242188 " fill-opacity="1" fill-rule="nonzero"/></g><g clip-path="url(#3437567ea2)"><path fill="#303843" d="M 1674.730469 1277.242188 L 1854.640625 834.382812 L 1937.679688 834.382812 L 2117.589844 1277.242188 L 1776.988281 1277.242188 L 1813.125 1194.207031 L 1993.035156 1194.207031 L 1896.929688 953.171875 L 1761.996094 1277.242188 L 1674.730469 1277.242188 " fill-opacity="1" fill-rule="nonzero"/></g><g clip-path="url(#e64190136c)"><path fill="#e75b0f" d="M 1501.492188 906.269531 L 1429.59375 1021.9375 L 1312.410156 833.410156 L 1206.679688 833.410156 L 1206.679688 1279.238281 L 1303.488281 1279.238281 L 1303.488281 990.085938 L 1377.664062 1102.679688 L 1427.683594 1178.613281 L 1429.617188 1181.546875 L 1560.460938 980.726562 C 1631.027344 872.417969 1738.667969 980.757812 1790.125 1047.886719 L 1805.007812 1041.574219 C 1779.886719 957.414062 1710.429688 868.257812 1609.554688 802.535156 C 1512.96875 739.613281 1408.394531 711.710938 1323.164062 719.136719 L 1322.269531 733.316406 C 1401.941406 751.964844 1534.515625 811.554688 1501.492188 906.269531 M 1652.507812 1279.238281 L 1652.507812 956.582031 C 1625.699219 949.296875 1599.113281 956.378906 1576.457031 991.15625 L 1555.703125 1023.011719 L 1555.703125 1279.238281 Z M 1661.847656 825.105469 L 1660.808594 826.714844 C 1645.921875 814.8125 1630.640625 803.808594 1615.25 793.785156 C 1606.855469 788.3125 1598.191406 782.976562 1589.316406 777.855469 L 1589.316406 777.847656 C 1602.308594 757.898438 1629.28125 752.210938 1649.222656 765.203125 C 1669.171875 778.203125 1674.851562 805.160156 1661.847656 825.105469 Z M 1661.847656 825.105469 " fill-opacity="1" fill-rule="evenodd"/></g><g transform="matrix(1, 0, 0, 1, 2045, 833)"><g clip-path="url(#c4e1d5357b)"><g fill="#303843" fill-opacity="1"><g transform="translate(0.536687, 441.585325)"><g><path d="M 250.921875 -356.140625 L 250.921875 0 L 160.640625 0 L 160.640625 -356.140625 L 13.703125 -356.140625 L 13.703125 -435.84375 L 417.78125 -435.84375 L 394.125 -376.0625 C 392.050781 -370.25 388.316406 -365.472656 382.921875 -361.734375 C 377.523438 -358.003906 371.710938 -356.140625 365.484375 -356.140625 Z M 250.921875 -356.140625 "/></g></g></g></g></g><g clip-path="url(#6f86e8ab39)"><g transform="matrix(1, 0, 0, 1, 0, 1525)"><g clip-path="url(#280e76459d)"><g fill="#e75b0f" fill-opacity="1"><g transform="translate(1.303639, 121.490659)"><g><path d="M 55.546875 -9.609375 C 62.546875 -9.609375 68.679688 -11.378906 73.953125 -14.921875 C 79.222656 -18.460938 83.132812 -23.238281 85.6875 -29.25 L 97.359375 -29.25 C 94.109375 -19.988281 88.742188 -12.703125 81.265625 -7.390625 C 73.285156 -1.671875 63.878906 1.1875 53.046875 1.1875 C 38.765625 1.1875 27.191406 -3.6875 18.328125 -13.4375 C 9.953125 -22.800781 5.765625 -34.625 5.765625 -48.90625 C 5.765625 -63.1875 9.953125 -75.003906 18.328125 -84.359375 C 27.191406 -94.117188 38.765625 -99 53.046875 -99 C 63.878906 -99 73.285156 -96.140625 81.265625 -90.421875 C 88.742188 -85.097656 94.109375 -77.8125 97.359375 -68.5625 L 85.6875 -68.5625 C 83.132812 -74.5625 79.222656 -79.332031 73.953125 -82.875 C 68.679688 -86.425781 62.546875 -88.203125 55.546875 -88.203125 C 48.554688 -88.203125 42.742188 -87.191406 38.109375 -85.171875 C 33.484375 -83.160156 29.597656 -80.378906 26.453125 -76.828125 C 20.046875 -69.640625 16.84375 -60.332031 16.84375 -48.90625 C 16.84375 -37.476562 20.046875 -28.171875 26.453125 -20.984375 C 33.148438 -13.398438 42.847656 -9.609375 55.546875 -9.609375 Z M 55.546875 -9.609375 "/></g></g></g><g fill="#e75b0f" fill-opacity="1"><g transform="translate(103.252837, 121.490659)"><g><path d="M 41.671875 -75.0625 C 52.703125 -75.0625 61.664062 -71.363281 68.5625 -63.96875 C 75.0625 -56.882812 78.3125 -47.875 78.3125 -36.9375 C 78.3125 -26 75.0625 -16.988281 68.5625 -9.90625 C 61.664062 -2.507812 52.703125 1.1875 41.671875 1.1875 C 30.640625 1.1875 21.675781 -2.507812 14.78125 -9.90625 C 8.28125 -16.988281 5.03125 -26 5.03125 -36.9375 C 5.03125 -47.875 8.28125 -56.882812 14.78125 -63.96875 C 21.675781 -71.363281 30.640625 -75.0625 41.671875 -75.0625 Z M 41.671875 -8.859375 C 49.648438 -8.859375 55.953125 -11.617188 60.578125 -17.140625 C 65.003906 -22.359375 67.21875 -28.957031 67.21875 -36.9375 C 67.21875 -44.914062 65.003906 -51.515625 60.578125 -56.734375 C 55.953125 -62.253906 49.648438 -65.015625 41.671875 -65.015625 C 33.691406 -65.015625 27.382812 -62.253906 22.75 -56.734375 C 18.320312 -51.515625 16.109375 -44.914062 16.109375 -36.9375 C 16.109375 -28.957031 18.320312 -22.359375 22.75 -17.140625 C 27.382812 -11.617188 33.691406 -8.859375 41.671875 -8.859375 Z M 41.671875 -8.859375 "/></g></g></g><g fill="#e75b0f" fill-opacity="1"><g transform="translate(186.585222, 121.490659)"><g><path d="M 20.6875 -73.875 L 20.6875 -62.34375 C 23.34375 -65.894531 26.59375 -68.898438 30.4375 -71.359375 C 34.28125 -73.828125 38.660156 -75.0625 43.578125 -75.0625 C 48.503906 -75.0625 52.738281 -74.367188 56.28125 -72.984375 C 59.832031 -71.609375 62.9375 -69.539062 65.59375 -66.78125 C 71.707031 -60.769531 74.765625 -52.84375 74.765625 -43 L 74.765625 0 L 63.6875 0 L 63.6875 -42.703125 C 63.6875 -49.492188 61.765625 -54.910156 57.921875 -58.953125 C 54.078125 -62.992188 49.101562 -65.015625 43 -65.015625 C 36.789062 -65.015625 31.519531 -62.941406 27.1875 -58.796875 C 22.851562 -54.566406 20.6875 -49.148438 20.6875 -42.546875 L 20.6875 0 L 9.609375 0 L 9.609375 -73.875 Z M 20.6875 -73.875 "/></g></g></g><g fill="#e75b0f" fill-opacity="1"><g transform="translate(270.213108, 121.490659)"><g><path d="M 53.046875 -54.078125 C 52.054688 -61.753906 45.875 -65.59375 34.5 -65.59375 C 23.125 -65.59375 17.4375 -62.050781 17.4375 -54.96875 C 17.4375 -52.007812 18.640625 -49.765625 21.046875 -48.234375 C 23.460938 -46.710938 26.492188 -45.457031 30.140625 -44.46875 C 33.785156 -43.488281 37.75 -42.578125 42.03125 -41.734375 C 46.320312 -40.898438 50.285156 -39.71875 53.921875 -38.1875 C 57.566406 -36.664062 60.597656 -34.570312 63.015625 -31.90625 C 65.429688 -29.25 66.640625 -25.609375 66.640625 -20.984375 C 66.640625 -13.785156 63.925781 -8.289062 58.5 -4.5 C 53.082031 -0.707031 45.75 1.1875 36.5 1.1875 C 26.644531 1.1875 18.8125 -1.273438 13 -6.203125 C 7.6875 -10.535156 4.832031 -16.203125 4.4375 -23.203125 L 15.953125 -23.203125 C 16.640625 -16.398438 20.484375 -11.816406 27.484375 -9.453125 C 30.046875 -8.671875 32.582031 -8.28125 35.09375 -8.28125 C 37.601562 -8.28125 39.941406 -8.425781 42.109375 -8.71875 C 44.273438 -9.007812 46.394531 -9.550781 48.46875 -10.34375 C 53.1875 -12.21875 55.546875 -15.421875 55.546875 -19.953125 C 55.546875 -23.003906 54.335938 -25.34375 51.921875 -26.96875 C 49.515625 -28.59375 46.488281 -29.921875 42.84375 -30.953125 C 39.195312 -31.984375 35.234375 -32.914062 30.953125 -33.75 C 26.671875 -34.59375 22.707031 -35.753906 19.0625 -37.234375 C 15.414062 -38.710938 12.382812 -40.726562 9.96875 -43.28125 C 7.5625 -45.84375 6.359375 -49.390625 6.359375 -53.921875 C 6.359375 -60.617188 8.796875 -65.816406 13.671875 -69.515625 C 18.546875 -73.210938 25.757812 -75.0625 35.3125 -75.0625 C 44.375 -75.0625 51.515625 -72.894531 56.734375 -68.5625 C 61.066406 -64.914062 63.578125 -60.085938 64.265625 -54.078125 Z M 53.046875 -54.078125 "/></g></g></g><g fill="#e75b0f" fill-opacity="1"><g transform="translate(341.429789, 121.490659)"><g><path d="M 17.578125 0 L 17.578125 -64.125 L 2.515625 -64.125 L 2.515625 -73.875 L 17.578125 -73.875 L 17.578125 -100.328125 L 28.65625 -100.328125 L 28.65625 -73.875 L 45.65625 -73.875 L 45.65625 -64.125 L 28.65625 -64.125 L 28.65625 0 Z M 17.578125 0 "/></g></g></g><g fill="#e75b0f" fill-opacity="1"><g transform="translate(389.597091, 121.490659)"><g><path d="M 48.609375 -75.0625 L 48.609375 -63.96875 L 47.28125 -63.96875 C 39.300781 -63.96875 32.800781 -60.769531 27.78125 -54.375 C 23.050781 -48.269531 20.6875 -40.976562 20.6875 -32.5 L 20.6875 0 L 9.609375 0 L 9.609375 -73.875 L 20.6875 -73.875 L 20.6875 -55.703125 C 23.050781 -63.378906 28.171875 -69.039062 36.046875 -72.6875 C 39.296875 -74.269531 43.238281 -75.0625 47.875 -75.0625 Z M 48.609375 -75.0625 "/></g></g></g><g fill="#e75b0f" fill-opacity="1"><g transform="translate(440.571695, 121.490659)"><g><path d="M 62.9375 0 L 62.9375 -11.53125 C 60.28125 -7.976562 57.03125 -4.96875 53.1875 -2.5 C 49.34375 -0.0390625 44.957031 1.1875 40.03125 1.1875 C 35.113281 1.1875 30.878906 0.5 27.328125 -0.875 C 23.785156 -2.257812 20.6875 -4.332031 18.03125 -7.09375 C 11.914062 -13.101562 8.859375 -21.03125 8.859375 -30.875 L 8.859375 -73.875 L 19.953125 -73.875 L 19.953125 -31.171875 C 19.953125 -24.378906 21.867188 -18.960938 25.703125 -14.921875 C 29.546875 -10.878906 34.519531 -8.859375 40.625 -8.859375 C 46.832031 -8.859375 52.101562 -10.929688 56.4375 -15.078125 C 60.769531 -19.304688 62.9375 -24.722656 62.9375 -31.328125 L 62.9375 -73.875 L 74.015625 -73.875 L 74.015625 0 Z M 62.9375 0 "/></g></g></g><g fill="#e75b0f" fill-opacity="1"><g transform="translate(524.199569, 121.490659)"><g><path d="M 43.734375 -8.859375 C 48.460938 -8.859375 52.648438 -10.1875 56.296875 -12.84375 C 59.941406 -15.507812 62.597656 -18.960938 64.265625 -23.203125 L 76.234375 -23.203125 C 73.972656 -15.910156 69.835938 -10.046875 63.828125 -5.609375 C 57.523438 -1.078125 50.039062 1.1875 41.375 1.1875 C 30.539062 1.1875 21.722656 -2.507812 14.921875 -9.90625 C 8.328125 -17.09375 5.03125 -26.101562 5.03125 -36.9375 C 5.03125 -47.769531 8.328125 -56.78125 14.921875 -63.96875 C 21.722656 -71.363281 30.539062 -75.0625 41.375 -75.0625 C 50.039062 -75.0625 57.523438 -72.796875 63.828125 -68.265625 C 69.835938 -63.828125 73.972656 -57.960938 76.234375 -50.671875 L 64.265625 -50.671875 C 62.597656 -54.910156 59.941406 -58.359375 56.296875 -61.015625 C 52.648438 -63.679688 48.460938 -65.015625 43.734375 -65.015625 C 39.003906 -65.015625 34.988281 -64.273438 31.6875 -62.796875 C 28.394531 -61.316406 25.613281 -59.296875 23.34375 -56.734375 C 18.519531 -51.410156 16.109375 -44.8125 16.109375 -36.9375 C 16.109375 -29.0625 18.519531 -22.460938 23.34375 -17.140625 C 28.269531 -11.617188 35.066406 -8.859375 43.734375 -8.859375 Z M 43.734375 -8.859375 "/></g></g></g><g fill="#e75b0f" fill-opacity="1"><g transform="translate(604.576894, 121.490659)"><g><path d="M 17.578125 0 L 17.578125 -64.125 L 2.515625 -64.125 L 2.515625 -73.875 L 17.578125 -73.875 L 17.578125 -100.328125 L 28.65625 -100.328125 L 28.65625 -73.875 L 45.65625 -73.875 L 45.65625 -64.125 L 28.65625 -64.125 L 28.65625 0 Z M 17.578125 0 "/></g></g></g><g fill="#e75b0f" fill-opacity="1"><g transform="translate(652.744196, 121.490659)"><g><path d="M 9.609375 -73.875 L 20.6875 -73.875 L 20.6875 0 L 9.609375 0 Z M 21.125 -100.765625 L 21.125 -86.28125 L 9.15625 -86.28125 L 9.15625 -100.765625 Z M 21.125 -100.765625 "/></g></g></g><g fill="#e75b0f" fill-opacity="1"><g transform="translate(683.033455, 121.490659)"><g><path d="M 41.671875 -75.0625 C 52.703125 -75.0625 61.664062 -71.363281 68.5625 -63.96875 C 75.0625 -56.882812 78.3125 -47.875 78.3125 -36.9375 C 78.3125 -26 75.0625 -16.988281 68.5625 -9.90625 C 61.664062 -2.507812 52.703125 1.1875 41.671875 1.1875 C 30.640625 1.1875 21.675781 -2.507812 14.78125 -9.90625 C 8.28125 -16.988281 5.03125 -26 5.03125 -36.9375 C 5.03125 -47.875 8.28125 -56.882812 14.78125 -63.96875 C 21.675781 -71.363281 30.640625 -75.0625 41.671875 -75.0625 Z M 41.671875 -8.859375 C 49.648438 -8.859375 55.953125 -11.617188 60.578125 -17.140625 C 65.003906 -22.359375 67.21875 -28.957031 67.21875 -36.9375 C 67.21875 -44.914062 65.003906 -51.515625 60.578125 -56.734375 C 55.953125 -62.253906 49.648438 -65.015625 41.671875 -65.015625 C 33.691406 -65.015625 27.382812 -62.253906 22.75 -56.734375 C 18.320312 -51.515625 16.109375 -44.914062 16.109375 -36.9375 C 16.109375 -28.957031 18.320312 -22.359375 22.75 -17.140625 C 27.382812 -11.617188 33.691406 -8.859375 41.671875 -8.859375 Z M 41.671875 -8.859375 "/></g></g></g><g fill="#e75b0f" fill-opacity="1"><g transform="translate(766.365862, 121.490659)"><g><path d="M 20.6875 -73.875 L 20.6875 -62.34375 C 23.34375 -65.894531 26.59375 -68.898438 30.4375 -71.359375 C 34.28125 -73.828125 38.660156 -75.0625 43.578125 -75.0625 C 48.503906 -75.0625 52.738281 -74.367188 56.28125 -72.984375 C 59.832031 -71.609375 62.9375 -69.539062 65.59375 -66.78125 C 71.707031 -60.769531 74.765625 -52.84375 74.765625 -43 L 74.765625 0 L 63.6875 0 L 63.6875 -42.703125 C 63.6875 -49.492188 61.765625 -54.910156 57.921875 -58.953125 C 54.078125 -62.992188 49.101562 -65.015625 43 -65.015625 C 36.789062 -65.015625 31.519531 -62.941406 27.1875 -58.796875 C 22.851562 -54.566406 20.6875 -49.148438 20.6875 -42.546875 L 20.6875 0 L 9.609375 0 L 9.609375 -73.875 Z M 20.6875 -73.875 "/></g></g></g><g fill="#e75b0f" fill-opacity="1"><g transform="translate(849.993736, 121.490659)"><g/></g></g><g fill="#e75b0f" fill-opacity="1"><g transform="translate(881.465001, 121.490659)"><g><path d="M 22.15625 -15.078125 L 22.15625 0 L 7.828125 0 L 7.828125 -15.078125 Z M 22.15625 -15.078125 "/></g></g></g><g fill="#e75b0f" fill-opacity="1"><g transform="translate(911.458747, 121.490659)"><g/></g></g><g fill="#e75b0f" fill-opacity="1"><g transform="translate(942.930011, 121.490659)"><g><path d="M 23.046875 0 L 11.96875 0 L 11.96875 -97.8125 L 58.796875 -97.8125 C 68.753906 -97.8125 76.734375 -95.050781 82.734375 -89.53125 C 88.742188 -84.113281 91.75 -76.675781 91.75 -67.21875 C 91.75 -55.007812 86.675781 -46.6875 76.53125 -42.25 C 73.675781 -40.96875 70.867188 -40.035156 68.109375 -39.453125 L 93.828125 0 L 80.671875 0 L 57.03125 -37.53125 L 23.046875 -37.53125 Z M 23.046875 -48.015625 L 56.890625 -48.015625 C 67.328125 -48.015625 74.515625 -51.265625 78.453125 -57.765625 C 79.929688 -60.234375 80.671875 -63.382812 80.671875 -67.21875 C 80.671875 -73.425781 78.550781 -78.328125 74.3125 -81.921875 C 70.082031 -85.515625 64.46875 -87.3125 57.46875 -87.3125 L 23.046875 -87.3125 Z M 23.046875 -48.015625 "/></g></g></g><g fill="#e75b0f" fill-opacity="1"><g transform="translate(1041.77645, 121.490659)"><g><path d="M 42.546875 -8.859375 C 52.492188 -8.859375 59.632812 -13 63.96875 -21.28125 L 76.09375 -21.28125 C 73.53125 -14.582031 69.460938 -9.160156 63.890625 -5.015625 C 58.328125 -0.878906 51.164062 1.1875 42.40625 1.1875 C 31.269531 1.1875 22.207031 -2.507812 15.21875 -9.90625 C 8.425781 -17.09375 5.03125 -26.101562 5.03125 -36.9375 C 5.03125 -47.875 8.28125 -56.882812 14.78125 -63.96875 C 21.675781 -71.363281 30.640625 -75.0625 41.671875 -75.0625 C 52.703125 -75.0625 61.664062 -71.363281 68.5625 -63.96875 C 75.0625 -56.882812 78.3125 -47.875 78.3125 -36.9375 L 78.3125 -32.5 L 16.40625 -32.5 C 17.1875 -25.707031 19.894531 -20.09375 24.53125 -15.65625 C 29.257812 -11.125 35.265625 -8.859375 42.546875 -8.859375 Z M 41.671875 -65.015625 C 34.867188 -65.015625 29.15625 -62.894531 24.53125 -58.65625 C 20.195312 -54.613281 17.535156 -49.34375 16.546875 -42.84375 L 66.78125 -42.84375 C 65.800781 -49.34375 63.140625 -54.613281 58.796875 -58.65625 C 54.171875 -62.894531 48.460938 -65.015625 41.671875 -65.015625 Z M 40.1875 -99.734375 L 56 -99.734375 L 40.1875 -84.21875 L 31.171875 -84.21875 Z M 40.1875 -99.734375 "/></g></g></g><g fill="#e75b0f" fill-opacity="1"><g transform="translate(1124.07454, 121.490659)"><g><path d="M 20.6875 -73.875 L 20.6875 -62.34375 C 23.34375 -65.894531 26.59375 -68.898438 30.4375 -71.359375 C 34.28125 -73.828125 38.660156 -75.0625 43.578125 -75.0625 C 48.503906 -75.0625 52.738281 -74.367188 56.28125 -72.984375 C 59.832031 -71.609375 62.9375 -69.539062 65.59375 -66.78125 C 71.707031 -60.769531 74.765625 -52.84375 74.765625 -43 L 74.765625 0 L 63.6875 0 L 63.6875 -42.703125 C 63.6875 -49.492188 61.765625 -54.910156 57.921875 -58.953125 C 54.078125 -62.992188 49.101562 -65.015625 43 -65.015625 C 36.789062 -65.015625 31.519531 -62.941406 27.1875 -58.796875 C 22.851562 -54.566406 20.6875 -49.148438 20.6875 -42.546875 L 20.6875 0 L 9.609375 0 L 9.609375 -73.875 Z M 20.6875 -73.875 "/></g></g></g><g fill="#e75b0f" fill-opacity="1"><g transform="translate(1207.702414, 121.490659)"><g><path d="M 41.671875 -75.0625 C 52.703125 -75.0625 61.664062 -71.363281 68.5625 -63.96875 C 75.0625 -56.882812 78.3125 -47.875 78.3125 -36.9375 C 78.3125 -26 75.0625 -16.988281 68.5625 -9.90625 C 61.664062 -2.507812 52.703125 1.1875 41.671875 1.1875 C 30.640625 1.1875 21.675781 -2.507812 14.78125 -9.90625 C 8.28125 -16.988281 5.03125 -26 5.03125 -36.9375 C 5.03125 -47.875 8.28125 -56.882812 14.78125 -63.96875 C 21.675781 -71.363281 30.640625 -75.0625 41.671875 -75.0625 Z M 41.671875 -8.859375 C 49.648438 -8.859375 55.953125 -11.617188 60.578125 -17.140625 C 65.003906 -22.359375 67.21875 -28.957031 67.21875 -36.9375 C 67.21875 -44.914062 65.003906 -51.515625 60.578125 -56.734375 C 55.953125 -62.253906 49.648438 -65.015625 41.671875 -65.015625 C 33.691406 -65.015625 27.382812 -62.253906 22.75 -56.734375 C 18.320312 -51.515625 16.109375 -44.914062 16.109375 -36.9375 C 16.109375 -28.957031 18.320312 -22.359375 22.75 -17.140625 C 27.382812 -11.617188 33.691406 -8.859375 41.671875 -8.859375 Z M 41.671875 -8.859375 "/></g></g></g><g fill="#e75b0f" fill-opacity="1"><g transform="translate(1291.034821, 121.490659)"><g><path d="M 71.515625 -73.875 L 42.703125 0 L 29.703125 0 L 0.734375 -73.875 L 12.859375 -73.875 L 36.203125 -11.8125 L 59.390625 -73.875 Z M 71.515625 -73.875 "/></g></g></g><g fill="#e75b0f" fill-opacity="1"><g transform="translate(1363.285751, 121.490659)"><g><path d="M 67.21875 -11.8125 C 61.3125 -3.144531 52.5 1.1875 40.78125 1.1875 C 30.144531 1.1875 21.476562 -2.507812 14.78125 -9.90625 C 8.28125 -17.1875 5.03125 -26.195312 5.03125 -36.9375 C 5.03125 -47.675781 8.28125 -56.6875 14.78125 -63.96875 C 21.476562 -71.363281 30.390625 -75.0625 41.515625 -75.0625 C 52.648438 -75.0625 61.21875 -70.675781 67.21875 -61.90625 L 67.21875 -73.875 L 78.3125 -73.875 L 78.3125 0 L 67.21875 0 Z M 42.25 -8.859375 C 50.226562 -8.859375 56.535156 -11.617188 61.171875 -17.140625 C 65.597656 -22.359375 67.8125 -28.957031 67.8125 -36.9375 C 67.8125 -44.914062 65.597656 -51.515625 61.171875 -56.734375 C 56.535156 -62.253906 50.226562 -65.015625 42.25 -65.015625 C 34.375 -65.015625 27.972656 -62.253906 23.046875 -56.734375 C 18.421875 -51.515625 16.109375 -44.914062 16.109375 -36.9375 C 16.109375 -28.957031 18.421875 -22.359375 23.046875 -17.140625 C 27.972656 -11.617188 34.375 -8.859375 42.25 -8.859375 Z M 42.25 -8.859375 "/></g></g></g><g fill="#e75b0f" fill-opacity="1"><g transform="translate(1451.198447, 121.490659)"><g><path d="M 17.578125 0 L 17.578125 -64.125 L 2.515625 -64.125 L 2.515625 -73.875 L 17.578125 -73.875 L 17.578125 -100.328125 L 28.65625 -100.328125 L 28.65625 -73.875 L 45.65625 -73.875 L 45.65625 -64.125 L 28.65625 -64.125 L 28.65625 0 Z M 17.578125 0 "/></g></g></g><g fill="#e75b0f" fill-opacity="1"><g transform="translate(1499.365794, 121.490659)"><g><path d="M 9.609375 -73.875 L 20.6875 -73.875 L 20.6875 0 L 9.609375 0 Z M 21.125 -100.765625 L 21.125 -86.28125 L 9.15625 -86.28125 L 9.15625 -100.765625 Z M 21.125 -100.765625 "/></g></g></g><g fill="#e75b0f" fill-opacity="1"><g transform="translate(1529.655007, 121.490659)"><g><path d="M 41.671875 -75.0625 C 52.703125 -75.0625 61.664062 -71.363281 68.5625 -63.96875 C 75.0625 -56.882812 78.3125 -47.875 78.3125 -36.9375 C 78.3125 -26 75.0625 -16.988281 68.5625 -9.90625 C 61.664062 -2.507812 52.703125 1.1875 41.671875 1.1875 C 30.640625 1.1875 21.675781 -2.507812 14.78125 -9.90625 C 8.28125 -16.988281 5.03125 -26 5.03125 -36.9375 C 5.03125 -47.875 8.28125 -56.882812 14.78125 -63.96875 C 21.675781 -71.363281 30.640625 -75.0625 41.671875 -75.0625 Z M 41.671875 -8.859375 C 49.648438 -8.859375 55.953125 -11.617188 60.578125 -17.140625 C 65.003906 -22.359375 67.21875 -28.957031 67.21875 -36.9375 C 67.21875 -44.914062 65.003906 -51.515625 60.578125 -56.734375 C 55.953125 -62.253906 49.648438 -65.015625 41.671875 -65.015625 C 33.691406 -65.015625 27.382812 -62.253906 22.75 -56.734375 C 18.320312 -51.515625 16.109375 -44.914062 16.109375 -36.9375 C 16.109375 -28.957031 18.320312 -22.359375 22.75 -17.140625 C 27.382812 -11.617188 33.691406 -8.859375 41.671875 -8.859375 Z M 41.671875 -8.859375 "/></g></g></g><g fill="#e75b0f" fill-opacity="1"><g transform="translate(1612.987415, 121.490659)"><g><path d="M 20.6875 -73.875 L 20.6875 -62.34375 C 23.34375 -65.894531 26.59375 -68.898438 30.4375 -71.359375 C 34.28125 -73.828125 38.660156 -75.0625 43.578125 -75.0625 C 48.503906 -75.0625 52.738281 -74.367188 56.28125 -72.984375 C 59.832031 -71.609375 62.9375 -69.539062 65.59375 -66.78125 C 71.707031 -60.769531 74.765625 -52.84375 74.765625 -43 L 74.765625 0 L 63.6875 0 L 63.6875 -42.703125 C 63.6875 -49.492188 61.765625 -54.910156 57.921875 -58.953125 C 54.078125 -62.992188 49.101562 -65.015625 43 -65.015625 C 36.789062 -65.015625 31.519531 -62.941406 27.1875 -58.796875 C 22.851562 -54.566406 20.6875 -49.148438 20.6875 -42.546875 L 20.6875 0 L 9.609375 0 L 9.609375 -73.875 Z M 20.6875 -73.875 "/></g></g></g><g fill="#e75b0f" fill-opacity="1"><g transform="translate(1696.61538, 121.490659)"><g/></g></g><g fill="#e75b0f" fill-opacity="1"><g transform="translate(1728.086644, 121.490659)"><g><path d="M 22.15625 -15.078125 L 22.15625 0 L 7.828125 0 L 7.828125 -15.078125 Z M 22.15625 -15.078125 "/></g></g></g><g fill="#e75b0f" fill-opacity="1"><g transform="translate(1758.08039, 121.490659)"><g/></g></g><g fill="#e75b0f" fill-opacity="1"><g transform="translate(1789.551655, 121.490659)"><g><path d="M 97.359375 0 L 85.109375 0 L 73.140625 -28.375 L 24.671875 -28.375 L 12.703125 0 L 0.4375 0 L 41.96875 -97.8125 L 55.84375 -97.8125 Z M 68.84375 -38.5625 L 48.90625 -86.28125 L 28.953125 -38.5625 Z M 68.84375 -38.5625 "/></g></g></g><g fill="#e75b0f" fill-opacity="1"><g transform="translate(1887.363685, 121.490659)"><g><path d="M 20.6875 -62.640625 C 25.613281 -70.921875 33.097656 -75.0625 43.140625 -75.0625 C 48.066406 -75.0625 52.625 -73.753906 56.8125 -71.140625 C 61 -68.523438 64.273438 -64.859375 66.640625 -60.140625 C 69.984375 -66.335938 75.203125 -70.769531 82.296875 -73.4375 C 85.148438 -74.519531 88.375 -75.0625 91.96875 -75.0625 C 95.5625 -75.0625 99.007812 -74.34375 102.3125 -72.90625 C 105.613281 -71.476562 108.546875 -69.4375 111.109375 -66.78125 C 116.617188 -60.875 119.375 -53.488281 119.375 -44.625 L 119.375 0 L 108.296875 0 L 108.296875 -44.328125 C 108.296875 -50.429688 106.570312 -55.453125 103.125 -59.390625 C 99.675781 -63.140625 95.296875 -65.015625 89.984375 -65.015625 C 84.367188 -65.015625 79.6875 -63.191406 75.9375 -59.546875 C 72 -55.796875 70.03125 -50.671875 70.03125 -44.171875 L 70.03125 0 L 58.953125 0 L 58.953125 -44.328125 C 58.953125 -50.429688 57.226562 -55.453125 53.78125 -59.390625 C 50.332031 -63.140625 45.945312 -65.015625 40.625 -65.015625 C 35.007812 -65.015625 30.332031 -63.191406 26.59375 -59.546875 C 22.65625 -55.796875 20.6875 -50.671875 20.6875 -44.171875 L 20.6875 0 L 9.609375 0 L 9.609375 -73.875 L 20.6875 -73.875 Z M 20.6875 -62.640625 "/></g></g></g><g fill="#e75b0f" fill-opacity="1"><g transform="translate(2015.612844, 121.490659)"><g><path d="M 42.546875 -8.859375 C 52.492188 -8.859375 59.632812 -13 63.96875 -21.28125 L 76.09375 -21.28125 C 73.53125 -14.582031 69.460938 -9.160156 63.890625 -5.015625 C 58.328125 -0.878906 51.164062 1.1875 42.40625 1.1875 C 31.269531 1.1875 22.207031 -2.507812 15.21875 -9.90625 C 8.425781 -17.09375 5.03125 -26.101562 5.03125 -36.9375 C 5.03125 -47.875 8.28125 -56.882812 14.78125 -63.96875 C 21.675781 -71.363281 30.640625 -75.0625 41.671875 -75.0625 C 52.703125 -75.0625 61.664062 -71.363281 68.5625 -63.96875 C 75.0625 -56.882812 78.3125 -47.875 78.3125 -36.9375 L 78.3125 -32.5 L 16.40625 -32.5 C 17.1875 -25.707031 19.894531 -20.09375 24.53125 -15.65625 C 29.257812 -11.125 35.265625 -8.859375 42.546875 -8.859375 Z M 41.671875 -65.015625 C 34.867188 -65.015625 29.15625 -62.894531 24.53125 -58.65625 C 20.195312 -54.613281 17.535156 -49.34375 16.546875 -42.84375 L 66.78125 -42.84375 C 65.800781 -49.34375 63.140625 -54.613281 58.796875 -58.65625 C 54.171875 -62.894531 48.460938 -65.015625 41.671875 -65.015625 Z M 40.1875 -99.734375 L 56 -99.734375 L 40.1875 -84.21875 L 31.171875 -84.21875 Z M 40.1875 -99.734375 "/></g></g></g><g fill="#e75b0f" fill-opacity="1"><g transform="translate(2097.911025, 121.490659)"><g><path d="M 20.6875 -73.875 L 20.6875 -62.34375 C 23.34375 -65.894531 26.59375 -68.898438 30.4375 -71.359375 C 34.28125 -73.828125 38.660156 -75.0625 43.578125 -75.0625 C 48.503906 -75.0625 52.738281 -74.367188 56.28125 -72.984375 C 59.832031 -71.609375 62.9375 -69.539062 65.59375 -66.78125 C 71.707031 -60.769531 74.765625 -52.84375 74.765625 -43 L 74.765625 0 L 63.6875 0 L 63.6875 -42.703125 C 63.6875 -49.492188 61.765625 -54.910156 57.921875 -58.953125 C 54.078125 -62.992188 49.101562 -65.015625 43 -65.015625 C 36.789062 -65.015625 31.519531 -62.941406 27.1875 -58.796875 C 22.851562 -54.566406 20.6875 -49.148438 20.6875 -42.546875 L 20.6875 0 L 9.609375 0 L 9.609375 -73.875 Z M 20.6875 -73.875 "/></g></g></g><g fill="#e75b0f" fill-opacity="1"><g transform="translate(2181.538808, 121.490659)"><g><path d="M 67.21875 -11.8125 C 61.3125 -3.144531 52.5 1.1875 40.78125 1.1875 C 30.144531 1.1875 21.476562 -2.507812 14.78125 -9.90625 C 8.28125 -17.1875 5.03125 -26.195312 5.03125 -36.9375 C 5.03125 -47.675781 8.28125 -56.6875 14.78125 -63.96875 C 21.476562 -71.363281 30.390625 -75.0625 41.515625 -75.0625 C 52.648438 -75.0625 61.21875 -70.675781 67.21875 -61.90625 L 67.21875 -73.875 L 78.3125 -73.875 L 78.3125 0 L 67.21875 0 Z M 42.25 -8.859375 C 50.226562 -8.859375 56.535156 -11.617188 61.171875 -17.140625 C 65.597656 -22.359375 67.8125 -28.957031 67.8125 -36.9375 C 67.8125 -44.914062 65.597656 -51.515625 61.171875 -56.734375 C 56.535156 -62.253906 50.226562 -65.015625 42.25 -65.015625 C 34.375 -65.015625 27.972656 -62.253906 23.046875 -56.734375 C 18.421875 -51.515625 16.109375 -44.914062 16.109375 -36.9375 C 16.109375 -28.957031 18.421875 -22.359375 23.046875 -17.140625 C 27.972656 -11.617188 34.375 -8.859375 42.25 -8.859375 Z M 42.25 -8.859375 "/></g></g></g><g fill="#e75b0f" fill-opacity="1"><g transform="translate(2269.451595, 121.490659)"><g><path d="M 67.21875 -62.0625 L 67.21875 -73.875 L 78.3125 -73.875 L 78.3125 -2.21875 C 78.3125 8.414062 75.28125 16.515625 69.21875 22.078125 C 63.164062 27.648438 55.015625 30.4375 44.765625 30.4375 C 34.523438 30.4375 26.519531 28.460938 20.75 24.515625 C 14.988281 20.578125 11.078125 15.359375 9.015625 8.859375 L 21.28125 8.859375 C 24.425781 16.546875 31.613281 20.390625 42.84375 20.390625 C 51.414062 20.390625 57.617188 18.414062 61.453125 14.46875 C 65.296875 10.53125 67.21875 4.722656 67.21875 -2.953125 L 67.21875 -13.15625 C 61.21875 -4.382812 52.40625 0 40.78125 0 C 30.144531 0 21.476562 -3.644531 14.78125 -10.9375 C 8.28125 -18.03125 5.03125 -26.894531 5.03125 -37.53125 C 5.03125 -48.164062 8.28125 -57.03125 14.78125 -64.125 C 21.476562 -71.414062 30.414062 -75.0625 41.59375 -75.0625 C 52.769531 -75.0625 61.3125 -70.726562 67.21875 -62.0625 Z M 42.25 -10.046875 C 46.289062 -10.046875 49.882812 -10.757812 53.03125 -12.1875 C 56.1875 -13.613281 58.898438 -15.5625 61.171875 -18.03125 C 65.597656 -23.144531 67.8125 -29.644531 67.8125 -37.53125 C 67.8125 -45.40625 65.597656 -51.90625 61.171875 -57.03125 C 56.335938 -62.351562 50.03125 -65.015625 42.25 -65.015625 C 34.269531 -65.015625 27.867188 -62.351562 23.046875 -57.03125 C 18.421875 -51.8125 16.109375 -45.3125 16.109375 -37.53125 C 16.109375 -29.75 18.421875 -23.25 23.046875 -18.03125 C 27.867188 -12.707031 34.269531 -10.046875 42.25 -10.046875 Z M 42.25 -10.046875 "/></g></g></g><g fill="#e75b0f" fill-opacity="1"><g transform="translate(2357.364199, 121.490659)"><g><path d="M 42.546875 -8.859375 C 52.492188 -8.859375 59.632812 -13 63.96875 -21.28125 L 76.09375 -21.28125 C 73.53125 -14.582031 69.460938 -9.160156 63.890625 -5.015625 C 58.328125 -0.878906 51.164062 1.1875 42.40625 1.1875 C 31.269531 1.1875 22.207031 -2.507812 15.21875 -9.90625 C 8.425781 -17.09375 5.03125 -26.101562 5.03125 -36.9375 C 5.03125 -47.875 8.28125 -56.882812 14.78125 -63.96875 C 21.675781 -71.363281 30.640625 -75.0625 41.671875 -75.0625 C 52.703125 -75.0625 61.664062 -71.363281 68.5625 -63.96875 C 75.0625 -56.882812 78.3125 -47.875 78.3125 -36.9375 L 78.3125 -32.5 L 16.40625 -32.5 C 17.1875 -25.707031 19.894531 -20.09375 24.53125 -15.65625 C 29.257812 -11.125 35.265625 -8.859375 42.546875 -8.859375 Z M 41.671875 -65.015625 C 34.867188 -65.015625 29.15625 -62.894531 24.53125 -58.65625 C 20.195312 -54.613281 17.535156 -49.34375 16.546875 -42.84375 L 66.78125 -42.84375 C 65.800781 -49.34375 63.140625 -54.613281 58.796875 -58.65625 C 54.171875 -62.894531 48.460938 -65.015625 41.671875 -65.015625 Z M 41.671875 -65.015625 "/></g></g></g><g fill="#e75b0f" fill-opacity="1"><g transform="translate(2439.66238, 121.490659)"><g><path d="M 20.6875 -62.640625 C 25.613281 -70.921875 33.097656 -75.0625 43.140625 -75.0625 C 48.066406 -75.0625 52.625 -73.753906 56.8125 -71.140625 C 61 -68.523438 64.273438 -64.859375 66.640625 -60.140625 C 69.984375 -66.335938 75.203125 -70.769531 82.296875 -73.4375 C 85.148438 -74.519531 88.375 -75.0625 91.96875 -75.0625 C 95.5625 -75.0625 99.007812 -74.34375 102.3125 -72.90625 C 105.613281 -71.476562 108.546875 -69.4375 111.109375 -66.78125 C 116.617188 -60.875 119.375 -53.488281 119.375 -44.625 L 119.375 0 L 108.296875 0 L 108.296875 -44.328125 C 108.296875 -50.429688 106.570312 -55.453125 103.125 -59.390625 C 99.675781 -63.140625 95.296875 -65.015625 89.984375 -65.015625 C 84.367188 -65.015625 79.6875 -63.191406 75.9375 -59.546875 C 72 -55.796875 70.03125 -50.671875 70.03125 -44.171875 L 70.03125 0 L 58.953125 0 L 58.953125 -44.328125 C 58.953125 -50.429688 57.226562 -55.453125 53.78125 -59.390625 C 50.332031 -63.140625 45.945312 -65.015625 40.625 -65.015625 C 35.007812 -65.015625 30.332031 -63.191406 26.59375 -59.546875 C 22.65625 -55.796875 20.6875 -50.671875 20.6875 -44.171875 L 20.6875 0 L 9.609375 0 L 9.609375 -73.875 L 20.6875 -73.875 Z M 20.6875 -62.640625 "/></g></g></g><g fill="#e75b0f" fill-opacity="1"><g transform="translate(2567.911539, 121.490659)"><g><path d="M 42.546875 -8.859375 C 52.492188 -8.859375 59.632812 -13 63.96875 -21.28125 L 76.09375 -21.28125 C 73.53125 -14.582031 69.460938 -9.160156 63.890625 -5.015625 C 58.328125 -0.878906 51.164062 1.1875 42.40625 1.1875 C 31.269531 1.1875 22.207031 -2.507812 15.21875 -9.90625 C 8.425781 -17.09375 5.03125 -26.101562 5.03125 -36.9375 C 5.03125 -47.875 8.28125 -56.882812 14.78125 -63.96875 C 21.675781 -71.363281 30.640625 -75.0625 41.671875 -75.0625 C 52.703125 -75.0625 61.664062 -71.363281 68.5625 -63.96875 C 75.0625 -56.882812 78.3125 -47.875 78.3125 -36.9375 L 78.3125 -32.5 L 16.40625 -32.5 C 17.1875 -25.707031 19.894531 -20.09375 24.53125 -15.65625 C 29.257812 -11.125 35.265625 -8.859375 42.546875 -8.859375 Z M 41.671875 -65.015625 C 34.867188 -65.015625 29.15625 -62.894531 24.53125 -58.65625 C 20.195312 -54.613281 17.535156 -49.34375 16.546875 -42.84375 L 66.78125 -42.84375 C 65.800781 -49.34375 63.140625 -54.613281 58.796875 -58.65625 C 54.171875 -62.894531 48.460938 -65.015625 41.671875 -65.015625 Z M 41.671875 -65.015625 "/></g></g></g><g fill="#e75b0f" fill-opacity="1"><g transform="translate(2650.209721, 121.490659)"><g><path d="M 20.6875 -73.875 L 20.6875 -62.34375 C 23.34375 -65.894531 26.59375 -68.898438 30.4375 -71.359375 C 34.28125 -73.828125 38.660156 -75.0625 43.578125 -75.0625 C 48.503906 -75.0625 52.738281 -74.367188 56.28125 -72.984375 C 59.832031 -71.609375 62.9375 -69.539062 65.59375 -66.78125 C 71.707031 -60.769531 74.765625 -52.84375 74.765625 -43 L 74.765625 0 L 63.6875 0 L 63.6875 -42.703125 C 63.6875 -49.492188 61.765625 -54.910156 57.921875 -58.953125 C 54.078125 -62.992188 49.101562 -65.015625 43 -65.015625 C 36.789062 -65.015625 31.519531 -62.941406 27.1875 -58.796875 C 22.851562 -54.566406 20.6875 -49.148438 20.6875 -42.546875 L 20.6875 0 L 9.609375 0 L 9.609375 -73.875 Z M 20.6875 -73.875 "/></g></g></g><g fill="#e75b0f" fill-opacity="1"><g transform="translate(2733.837503, 121.490659)"><g><path d="M 17.578125 0 L 17.578125 -64.125 L 2.515625 -64.125 L 2.515625 -73.875 L 17.578125 -73.875 L 17.578125 -100.328125 L 28.65625 -100.328125 L 28.65625 -73.875 L 45.65625 -73.875 L 45.65625 -64.125 L 28.65625 -64.125 L 28.65625 0 Z M 17.578125 0 "/></g></g></g><g fill="#e75b0f" fill-opacity="1"><g transform="translate(2782.006357, 121.490659)"><g/></g></g></g></g></g></g></g></svg>