<svg xmlns="http://www.w3.org/2000/svg" xmlns:xlink="http://www.w3.org/1999/xlink" width="4535" zoomAndPan="magnify" viewBox="0 0 3401.25 2551.499951" height="3402" preserveAspectRatio="xMidYMid meet" version="1.0"><defs><g/><clipPath id="c6db609bb2"><path d="M 0 0.03125 L 3400.5 0.03125 L 3400.5 2550.96875 L 0 2550.96875 Z M 0 0.03125 " clip-rule="nonzero"/></clipPath><clipPath id="0dea4949d9"><path d="M 545.914062 1.859375 L 1979.828125 1.859375 L 1979.828125 658.53125 L 545.914062 658.53125 Z M 545.914062 1.859375 " clip-rule="nonzero"/></clipPath><clipPath id="c94cd96982"><path d="M 0.621094 1404.109375 L 2482.15625 1404.109375 L 2482.15625 1415.59375 L 0.621094 1415.59375 Z M 0.621094 1404.109375 " clip-rule="nonzero"/></clipPath><clipPath id="9468ee7852"><path d="M 177 845.378906 L 542 845.378906 L 542 1277.417969 L 177 1277.417969 Z M 177 845.378906 " clip-rule="nonzero"/></clipPath><clipPath id="172fd5edd0"><path d="M 573.667969 834.382812 L 1016.472656 834.382812 L 1016.472656 1277.1875 L 573.667969 1277.1875 Z M 573.667969 834.382812 " clip-rule="nonzero"/></clipPath><clipPath id="532e056d13"><path d="M 1508.730469 834.382812 L 1951.535156 834.382812 L 1951.535156 1277.1875 L 1508.730469 1277.1875 Z M 1508.730469 834.382812 " clip-rule="nonzero"/></clipPath><clipPath id="709269e9dd"><path d="M 1040.679688 717 L 1639.222656 717 L 1639.222656 1279.320312 L 1040.679688 1279.320312 Z M 1040.679688 717 " clip-rule="nonzero"/></clipPath><clipPath id="9cb9dfd060"><rect x="0" width="432" y="0" height="463"/></clipPath><clipPath id="44a6c48935"><rect x="0" width="2483" y="0" height="1416"/></clipPath></defs><g clip-path="url(#c6db609bb2)"><path fill="#ffffff" d="M 0 0.03125 L 3400.5 0.03125 L 3400.5 2550.96875 L 0 2550.96875 Z M 0 0.03125 " fill-opacity="1" fill-rule="nonzero"/><path fill="#ffffff" d="M 0 0.03125 L 3400.5 0.03125 L 3400.5 2550.96875 L 0 2550.96875 Z M 0 0.03125 " fill-opacity="1" fill-rule="nonzero"/></g><g transform="matrix(1, 0, 0, 1, 444, 146)"><g clip-path="url(#44a6c48935)"><g clip-path="url(#0dea4949d9)"><path fill="#e75b0f" d="M 551.628906 512.210938 L 551.628906 512.214844 L 548.746094 509.328125 L 881.917969 509.410156 C 882.289062 509.410156 882.660156 509.480469 883.003906 509.621094 L 1234.175781 652.621094 L 1232.234375 652.539062 L 1567.574219 548.808594 L 1567.429688 554.273438 L 1381.164062 485.71875 L 1382.523438 485.875 L 1141.882812 516.375 C 1141.0625 516.480469 1140.238281 516.226562 1139.617188 515.683594 C 1138.996094 515.136719 1138.640625 514.351562 1138.636719 513.527344 L 1137.382812 254.601562 C 1137.378906 253.730469 1137.769531 252.90625 1138.441406 252.355469 L 1285.648438 132.03125 C 1286.261719 131.527344 1287.054688 131.300781 1287.839844 131.402344 C 1288.625 131.503906 1289.335938 131.921875 1289.804688 132.5625 L 1388.597656 267.609375 C 1388.953125 268.097656 1389.148438 268.6875 1389.152344 269.292969 L 1390.539062 469.941406 L 1388.4375 467.183594 L 1516.246094 503.171875 L 1512.578125 505.96875 L 1511.171875 298.136719 L 1511.558594 299.558594 L 1355.589844 28.652344 L 1359.914062 29.449219 L 1127.78125 218.601562 L 1128.84375 216.355469 L 1129.75 514.917969 C 1129.753906 515.785156 1129.363281 516.605469 1128.695312 517.15625 C 1128.023438 517.707031 1127.140625 517.925781 1126.292969 517.753906 L 1067.113281 505.785156 C 1065.765625 505.515625 1064.800781 504.335938 1064.796875 502.964844 L 1064.417969 244.179688 C 1064.414062 243.320312 1064.800781 242.503906 1065.460938 241.953125 L 1153.25 169.164062 L 1154.535156 174.214844 L 1050.503906 153.828125 L 1053.945312 150.996094 L 1053.757812 498.203125 C 1053.757812 499.085938 1053.351562 499.917969 1052.664062 500.464844 C 1051.972656 501.011719 1051.070312 501.214844 1050.210938 501.011719 L 999.730469 489.164062 C 998.429688 488.859375 997.507812 487.703125 997.503906 486.367188 L 996.53125 190.882812 C 996.527344 190.074219 996.863281 189.304688 997.457031 188.753906 L 1036.515625 152.613281 C 1037.359375 151.835938 1038.585938 151.628906 1039.636719 152.09375 C 1040.691406 152.554688 1041.367188 153.597656 1041.359375 154.746094 L 1040.796875 264.871094 C 1040.792969 265.707031 1040.425781 266.5 1039.792969 267.042969 L 965.171875 331.265625 L 966.175781 329.078125 L 966.132812 501.820312 L 964.09375 499.0625 L 1201.515625 572.019531 L 1197.78125 574.785156 L 1196.710938 181.339844 C 1196.707031 180.464844 1197.101562 179.636719 1197.785156 179.089844 L 1416.644531 2.488281 C 1417.292969 1.96875 1418.128906 1.75 1418.945312 1.890625 C 1419.765625 2.03125 1420.480469 2.515625 1420.914062 3.222656 L 1599.910156 294.21875 C 1600.183594 294.667969 1600.332031 295.179688 1600.339844 295.703125 L 1602.617188 511.972656 L 1599.753906 509.121094 L 1976.910156 511.808594 C 1978.503906 511.820312 1979.789062 513.121094 1979.777344 514.714844 C 1979.765625 516.308594 1978.464844 517.59375 1976.871094 517.582031 L 1599.714844 514.890625 C 1598.140625 514.878906 1596.863281 513.609375 1596.847656 512.035156 L 1594.566406 295.761719 L 1594.996094 297.246094 L 1416 6.246094 L 1420.269531 6.980469 L 1201.410156 183.578125 L 1202.480469 181.324219 L 1203.554688 574.769531 C 1203.558594 575.6875 1203.125 576.550781 1202.386719 577.097656 C 1201.648438 577.640625 1200.699219 577.804688 1199.820312 577.535156 L 962.398438 504.578125 C 961.1875 504.207031 960.359375 503.085938 960.363281 501.820312 L 960.402344 329.078125 C 960.402344 328.238281 960.769531 327.4375 961.40625 326.890625 L 1036.03125 262.671875 L 1035.027344 264.84375 L 1035.589844 154.71875 L 1040.433594 156.851562 L 1001.375 192.992188 L 1002.300781 190.863281 L 1003.277344 486.347656 L 1001.050781 483.546875 L 1051.53125 495.394531 L 1047.984375 498.203125 L 1048.175781 150.996094 C 1048.175781 150.132812 1048.5625 149.316406 1049.226562 148.765625 C 1049.894531 148.21875 1050.769531 148 1051.617188 148.164062 L 1155.644531 168.554688 C 1156.738281 168.765625 1157.613281 169.59375 1157.886719 170.671875 C 1158.160156 171.753906 1157.789062 172.894531 1156.933594 173.605469 L 1069.144531 246.398438 L 1070.1875 244.171875 L 1070.570312 502.953125 L 1068.253906 500.128906 L 1127.4375 512.097656 L 1123.976562 514.933594 L 1123.070312 216.371094 C 1123.066406 215.5 1123.457031 214.675781 1124.132812 214.125 L 1356.269531 24.972656 C 1356.925781 24.441406 1357.78125 24.21875 1358.613281 24.375 C 1359.445312 24.527344 1360.167969 25.039062 1360.589844 25.773438 L 1516.558594 296.679688 C 1516.808594 297.109375 1516.941406 297.597656 1516.945312 298.097656 L 1518.347656 505.929688 C 1518.355469 506.835938 1517.933594 507.695312 1517.210938 508.246094 C 1516.492188 508.792969 1515.554688 508.972656 1514.679688 508.726562 L 1386.871094 472.742188 C 1385.636719 472.390625 1384.777344 471.269531 1384.769531 469.984375 L 1383.382812 269.332031 L 1383.9375 271.015625 L 1285.144531 135.96875 L 1289.300781 136.5 L 1142.09375 256.824219 L 1143.15625 254.574219 L 1144.40625 513.5 L 1141.15625 510.648438 L 1381.796875 480.148438 C 1382.253906 480.089844 1382.722656 480.144531 1383.15625 480.304688 L 1569.421875 548.859375 C 1570.585938 549.285156 1571.34375 550.40625 1571.3125 551.640625 C 1571.277344 552.878906 1570.460938 553.957031 1569.277344 554.324219 L 1233.9375 658.050781 C 1233.300781 658.25 1232.613281 658.21875 1231.996094 657.96875 L 880.828125 514.96875 L 881.914062 515.179688 L 548.742188 515.097656 C 547.148438 515.097656 545.859375 513.808594 545.859375 512.214844 L 545.859375 512.210938 C 545.859375 510.617188 547.148438 509.324219 548.742188 509.324219 C 550.339844 509.324219 551.628906 510.617188 551.628906 512.210938 Z M 551.628906 512.210938 " fill-opacity="1" fill-rule="nonzero"/></g><g clip-path="url(#c94cd96982)"><path fill="#303843" d="M 0.78125 1404.109375 L 2482.03125 1404.109375 L 2482.03125 1415.492188 L 0.78125 1415.492188 Z M 0.78125 1404.109375 " fill-opacity="1" fill-rule="nonzero"/></g><path fill="#303843" d="M 541.917969 1088.09375 L 541.917969 1007.289062 L 393.773438 1007.289062 L 393.773438 1088.09375 L 541.917969 1088.09375 " fill-opacity="1" fill-rule="nonzero"/><g clip-path="url(#9468ee7852)"><path fill="#303843" d="M 461.113281 1195.542969 L 393.773438 1195.542969 C 319.5625 1195.542969 259.390625 1135.371094 259.390625 1061.160156 C 259.390625 986.949219 319.5625 926.777344 393.773438 926.777344 L 541.917969 926.484375 L 541.917969 845.304688 L 393.773438 845.304688 C 274.566406 845.304688 177.917969 941.949219 177.917969 1061.160156 C 177.917969 1180.367188 274.566406 1277.015625 393.773438 1277.015625 L 541.917969 1277.015625 L 541.917969 1106.050781 L 461.113281 1106.050781 L 461.113281 1195.542969 " fill-opacity="1" fill-rule="nonzero"/></g><g clip-path="url(#172fd5edd0)"><path fill="#303843" d="M 573.667969 1277.242188 L 753.578125 834.382812 L 836.613281 834.382812 L 1016.527344 1277.242188 L 675.925781 1277.242188 L 712.058594 1194.207031 L 891.972656 1194.207031 L 795.867188 953.171875 L 660.929688 1277.242188 L 573.667969 1277.242188 " fill-opacity="1" fill-rule="nonzero"/></g><g clip-path="url(#532e056d13)"><path fill="#303843" d="M 1508.730469 1277.242188 L 1688.640625 834.382812 L 1771.679688 834.382812 L 1951.589844 1277.242188 L 1610.988281 1277.242188 L 1647.125 1194.207031 L 1827.035156 1194.207031 L 1730.929688 953.171875 L 1595.996094 1277.242188 L 1508.730469 1277.242188 " fill-opacity="1" fill-rule="nonzero"/></g><g clip-path="url(#709269e9dd)"><path fill="#e75b0f" d="M 1335.492188 906.269531 L 1263.59375 1021.9375 L 1146.410156 833.410156 L 1040.679688 833.410156 L 1040.679688 1279.238281 L 1137.488281 1279.238281 L 1137.488281 990.085938 L 1211.664062 1102.679688 L 1261.683594 1178.613281 L 1263.617188 1181.546875 L 1394.460938 980.726562 C 1465.027344 872.417969 1572.667969 980.757812 1624.125 1047.886719 L 1639.007812 1041.574219 C 1613.886719 957.414062 1544.429688 868.257812 1443.554688 802.535156 C 1346.96875 739.613281 1242.394531 711.710938 1157.164062 719.136719 L 1156.269531 733.316406 C 1235.941406 751.964844 1368.515625 811.554688 1335.492188 906.269531 M 1486.507812 1279.238281 L 1486.507812 956.582031 C 1459.699219 949.296875 1433.113281 956.378906 1410.457031 991.15625 L 1389.703125 1023.011719 L 1389.703125 1279.238281 Z M 1495.847656 825.105469 L 1494.808594 826.714844 C 1479.921875 814.8125 1464.640625 803.808594 1449.25 793.785156 C 1440.855469 788.3125 1432.191406 782.976562 1423.316406 777.855469 L 1423.316406 777.847656 C 1436.308594 757.898438 1463.28125 752.210938 1483.222656 765.203125 C 1503.171875 778.203125 1508.851562 805.160156 1495.847656 825.105469 Z M 1495.847656 825.105469 " fill-opacity="1" fill-rule="evenodd"/></g><g transform="matrix(1, 0, 0, 1, 1879, 833)"><g clip-path="url(#9cb9dfd060)"><g fill="#303843" fill-opacity="1"><g transform="translate(0.536922, 441.585325)"><g><path d="M 250.921875 -356.140625 L 250.921875 0 L 160.640625 0 L 160.640625 -356.140625 L 13.703125 -356.140625 L 13.703125 -435.84375 L 417.78125 -435.84375 L 394.125 -376.0625 C 392.050781 -370.25 388.316406 -365.472656 382.921875 -361.734375 C 377.523438 -358.003906 371.710938 -356.140625 365.484375 -356.140625 Z M 250.921875 -356.140625 "/></g></g></g></g></g></g></g></svg>