<svg xmlns="http://www.w3.org/2000/svg" xmlns:xlink="http://www.w3.org/1999/xlink" width="4535" zoomAndPan="magnify" viewBox="0 0 3401.25 2551.49989" height="3402" preserveAspectRatio="xMidYMid meet" version="1.0"><defs><g/><clipPath id="91650e0880"><path d="M 0 0.03125 L 3400.5 0.03125 L 3400.5 2550.96875 L 0 2550.96875 Z M 0 0.03125 " clip-rule="nonzero"/></clipPath><clipPath id="08ef40ac8d"><path d="M 0 0.03125 L 3400.175781 0.03125 L 3400.175781 2550.726562 L 0 2550.726562 Z M 0 0.03125 " clip-rule="nonzero"/></clipPath><clipPath id="29f41847a6"><path d="M 2 128.285156 L 367 128.285156 L 367 560 L 2 560 Z M 2 128.285156 " clip-rule="nonzero"/></clipPath><clipPath id="6056c46d10"><path d="M 398.570312 117.289062 L 841.332031 117.289062 L 841.332031 560.050781 L 398.570312 560.050781 Z M 398.570312 117.289062 " clip-rule="nonzero"/></clipPath><clipPath id="7d565039aa"><path d="M 1333.542969 117.289062 L 1776.304688 117.289062 L 1776.304688 560.050781 L 1333.542969 560.050781 Z M 1333.542969 117.289062 " clip-rule="nonzero"/></clipPath><clipPath id="96aa8e46b0"><path d="M 865.539062 0.601562 L 1464 0.601562 L 1464 562.183594 L 865.539062 562.183594 Z M 865.539062 0.601562 " clip-rule="nonzero"/></clipPath><clipPath id="278427535c"><path d="M 1704 116 L 2134.871094 116 L 2134.871094 578.152344 L 1704 578.152344 Z M 1704 116 " clip-rule="nonzero"/></clipPath><clipPath id="21ce1d1cf6"><rect x="0" width="431" y="0" height="463"/></clipPath><clipPath id="cef3240894"><rect x="0" width="2135" y="0" height="579"/></clipPath><clipPath id="ff2b0637c5"><rect x="0" width="3401" y="0" height="2551"/></clipPath></defs><g clip-path="url(#91650e0880)"><path fill="#ffffff" d="M 0 0.03125 L 3400.5 0.03125 L 3400.5 2550.96875 L 0 2550.96875 Z M 0 0.03125 " fill-opacity="1" fill-rule="nonzero"/><g transform="matrix(1, 0, 0, 1, 0, 0.000000000000200465)"><g clip-path="url(#ff2b0637c5)"><g clip-path="url(#08ef40ac8d)"><path fill="#ffffff" d="M 0 0.03125 L 3400.175781 0.03125 L 3400.175781 2550.726562 L 0 2550.726562 Z M 0 0.03125 " fill-opacity="1" fill-rule="nonzero"/></g><g transform="matrix(1, 0, 0, 1, 619, 863)"><g clip-path="url(#cef3240894)"><path fill="#303843" d="M 366.824219 370.976562 L 366.824219 290.179688 L 218.695312 290.179688 L 218.695312 370.976562 L 366.824219 370.976562 " fill-opacity="1" fill-rule="nonzero"/><g clip-path="url(#29f41847a6)"><path fill="#303843" d="M 286.023438 478.414062 L 218.695312 478.414062 C 144.488281 478.414062 84.324219 418.25 84.324219 344.042969 C 84.324219 269.839844 144.488281 209.671875 218.695312 209.671875 L 366.824219 209.378906 L 366.824219 128.207031 L 218.695312 128.207031 C 99.496094 128.207031 2.859375 224.847656 2.859375 344.042969 C 2.859375 463.242188 99.496094 559.878906 218.695312 559.878906 L 366.824219 559.878906 L 366.824219 388.929688 L 286.023438 388.929688 L 286.023438 478.414062 " fill-opacity="1" fill-rule="nonzero"/></g><g clip-path="url(#6056c46d10)"><path fill="#303843" d="M 398.570312 560.105469 L 578.464844 117.289062 L 661.492188 117.289062 L 841.386719 560.105469 L 500.816406 560.105469 L 536.949219 477.078125 L 716.84375 477.078125 L 620.746094 236.066406 L 485.824219 560.105469 L 398.570312 560.105469 " fill-opacity="1" fill-rule="nonzero"/></g><g clip-path="url(#7d565039aa)"><path fill="#303843" d="M 1333.542969 560.105469 L 1513.4375 117.289062 L 1596.46875 117.289062 L 1776.363281 560.105469 L 1435.792969 560.105469 L 1471.925781 477.078125 L 1651.820312 477.078125 L 1555.722656 236.066406 L 1420.800781 560.105469 L 1333.542969 560.105469 " fill-opacity="1" fill-rule="nonzero"/></g><g clip-path="url(#96aa8e46b0)"><path fill="#e75b0f" d="M 1160.320312 189.167969 L 1088.429688 304.824219 L 971.257812 116.316406 L 865.539062 116.316406 L 865.539062 562.101562 L 962.335938 562.101562 L 962.335938 272.976562 L 1036.507812 385.5625 L 1086.519531 461.484375 L 1088.453125 464.417969 L 1219.285156 263.617188 C 1289.84375 155.320312 1397.472656 263.648438 1448.929688 330.769531 L 1463.808594 324.460938 C 1438.691406 240.304688 1369.238281 151.160156 1268.371094 85.441406 C 1171.800781 22.527344 1067.230469 -5.371094 982.011719 2.050781 L 981.117188 16.230469 C 1060.777344 34.878906 1193.339844 94.464844 1160.320312 189.167969 M 1311.324219 562.101562 L 1311.324219 239.476562 C 1284.519531 232.195312 1257.9375 239.273438 1235.28125 274.046875 L 1214.527344 305.898438 L 1214.527344 562.101562 Z M 1320.660156 108.011719 L 1319.621094 109.621094 C 1304.738281 97.71875 1289.460938 86.714844 1274.070312 76.695312 C 1265.675781 71.222656 1257.011719 65.886719 1248.136719 60.765625 L 1248.136719 60.757812 C 1261.128906 40.808594 1288.101562 35.125 1308.039062 48.113281 C 1327.988281 61.113281 1333.664062 88.070312 1320.660156 108.011719 Z M 1320.660156 108.011719 " fill-opacity="1" fill-rule="evenodd"/></g><g clip-path="url(#278427535c)"><g transform="matrix(1, 0, 0, 1, 1704, 116)"><g clip-path="url(#21ce1d1cf6)"><g fill="#303843" fill-opacity="1"><g transform="translate(0.314783, 441.449133)"><g><path d="M 250.90625 -356.109375 L 250.90625 0 L 160.625 0 L 160.625 -356.109375 L 13.703125 -356.109375 L 13.703125 -435.8125 L 417.75 -435.8125 L 394.09375 -376.03125 C 392.019531 -370.226562 388.285156 -365.457031 382.890625 -361.71875 C 377.492188 -357.976562 371.679688 -356.109375 365.453125 -356.109375 Z M 250.90625 -356.109375 "/></g></g></g></g></g></g></g></g></g></g></g></svg>